0
SECTION
2
HEADER
9
$ANGDIR
70
1
9
$AUNITS
70
0
9
$PROJECTNAME
1
Adafruit AP6302
9
$TDCREATE
40
2459584.77591357
9
$INSUNITS
70
4
0
ENDSEC
0
SECTION
2
ENTITIES
0
POLYLINE
66
1
8
outline
10
0.0
20
0.0
30
0.0
70
1
0
VERTEX
8
0
10
0
20
0
30
0
0
VERTEX
8
0
10
10.16
20
0
30
0
0
VERTEX
8
0
10
10.16
20
12.700000000000001
30
0
0
VERTEX
8
0
10
10.150334375
20
12.921375000000001
30
0
0
VERTEX
8
0
10
10.1214125
20
13.141065625000001
30
0
0
VERTEX
8
0
10
10.073453125
20
13.3574
30
0
0
VERTEX
8
0
10
10.00681875
20
13.56873125
30
0
0
VERTEX
8
0
10
9.922021875
20
13.77345
30
0
0
VERTEX
8
0
10
9.819703125
20
13.97
30
0
0
VERTEX
8
0
10
9.700646875
20
14.156884375
30
0
0
VERTEX
8
0
10
9.565753125
20
14.33268125
30
0
0
VERTEX
8
0
10
9.41605
20
14.49605
30
0
0
VERTEX
8
0
10
9.25268125
20
14.645753125
30
0
0
VERTEX
8
0
10
9.076884375
20
14.780646875
30
0
0
VERTEX
8
0
10
8.89
20
14.899703125
30
0
0
VERTEX
8
0
10
8.69345
20
15.002021875
30
0
0
VERTEX
8
0
10
8.48873125
20
15.08681875
30
0
0
VERTEX
8
0
10
8.2774
20
15.153453125
30
0
0
VERTEX
8
0
10
8.061065625000001
20
15.2014125
30
0
0
VERTEX
8
0
10
7.841375
20
15.230334375
30
0
0
VERTEX
8
0
10
7.62
20
15.24
30
0
0
VERTEX
8
0
10
2.54
20
15.24
30
0
0
VERTEX
8
0
10
2.318625
20
15.230334375
30
0
0
VERTEX
8
0
10
2.0989343750000002
20
15.2014125
30
0
0
VERTEX
8
0
10
1.8826
20
15.153453125
30
0
0
VERTEX
8
0
10
1.67126875
20
15.08681875
30
0
0
VERTEX
8
0
10
1.46655
20
15.002021875
30
0
0
VERTEX
8
0
10
1.27
20
14.899703125
30
0
0
VERTEX
8
0
10
1.083115625
20
14.780646875
30
0
0
VERTEX
8
0
10
0.9073187500000001
20
14.645753125
30
0
0
VERTEX
8
0
10
0.74395
20
14.49605
30
0
0
VERTEX
8
0
10
0.5942468750000001
20
14.33268125
30
0
0
VERTEX
8
0
10
0.45935312500000003
20
14.156884375
30
0
0
VERTEX
8
0
10
0.340296875
20
13.97
30
0
0
VERTEX
8
0
10
0.237978125
20
13.77345
30
0
0
VERTEX
8
0
10
0.15318125000000002
20
13.56873125
30
0
0
VERTEX
8
0
10
0.08654687500000001
20
13.3574
30
0
0
VERTEX
8
0
10
0.038587500000000004
20
13.141065625000001
30
0
0
VERTEX
8
0
10
0.009665625
20
12.921375000000001
30
0
0
VERTEX
8
0
10
0
20
12.700000000000001
30
0
0
VERTEX
8
0
10
0
20
0
30
0
0
SEQEND
0
POLYLINE
66
1
8
1_copper
10
0.0
20
0.0
30
0.0
70
1
0
VERTEX
8
0
10
7.886
20
8.204
30
0
0
VERTEX
8
0
10
7.886
20
7.807990625
30
0
0
VERTEX
8
0
10
7.6319968750000005
20
7.807990625
30
0
0
VERTEX
8
0
10
7.632000000000001
20
8.237440625
30
0
0
VERTEX
8
0
10
7.6493093750000005
20
8.302040625
30
0
0
VERTEX
8
0
10
7.682746875
20
8.359953125
30
0
0
VERTEX
8
0
10
7.73004375
20
8.407250000000001
30
0
0
VERTEX
8
0
10
7.78795
20
8.44068125
30
0
0
VERTEX
8
0
10
7.816803125000001
20
8.4484125
30
0
42
0.45130917259406744
0
VERTEX
8
0
10
7.900890625000001
20
8.618715625
30
0
0
VERTEX
8
0
10
7.897362500000001
20
8.62821875
30
0
0
VERTEX
8
0
10
7.895184375
20
8.631559375
30
0
0
VERTEX
8
0
10
7.89356875
20
8.635196875
30
0
0
VERTEX
8
0
10
7.8887125000000005
20
8.6414875
30
0
0
VERTEX
8
0
10
7.882003125000001
20
8.651784375
30
0
0
VERTEX
8
0
10
7.8770625
20
8.6565875
30
0
0
VERTEX
8
0
10
7.87374375
20
8.660887500000001
30
0
0
VERTEX
8
0
10
7.83680625
20
8.697828125000001
30
0
42
0.34102712914228045
0
VERTEX
8
0
10
7.682884375
20
8.717656250000001
30
0
0
VERTEX
8
0
10
7.68208125
20
8.7170375
30
0
0
VERTEX
8
0
10
7.681021875000001
20
8.71654375
30
0
0
VERTEX
8
0
10
7.6587531250000005
20
8.699359375
30
0
0
VERTEX
8
0
10
7.6580031250000005
20
8.698453125
30
0
0
VERTEX
8
0
10
7.657196875
20
8.69783125
30
0
0
VERTEX
8
0
10
7.531165625000001
20
8.5718
30
0
0
VERTEX
8
0
10
6.837196875
20
8.5718
30
0
0
VERTEX
8
0
10
6.82425
20
8.57035625
30
0
0
VERTEX
8
0
10
6.8113656250000005
20
8.56914375
30
0
42
0.28478264770884804
0
VERTEX
8
0
10
6.71434375
20
8.476984375
30
0
0
VERTEX
8
0
10
6.7142156250000005
20
8.4759875
30
0
0
VERTEX
8
0
10
6.713809375
20
8.474875
30
0
0
VERTEX
8
0
10
6.710215625
20
8.446975
30
0
0
VERTEX
8
0
10
6.710325
20
8.445803125000001
30
0
0
VERTEX
8
0
10
6.710196875
20
8.4448
30
0
0
VERTEX
8
0
10
6.710196875
20
8.159196875000001
30
0
0
VERTEX
8
0
10
6.711640625
20
8.14625
30
0
0
VERTEX
8
0
10
6.7128531250000005
20
8.133365625
30
0
42
0.28478264770884804
0
VERTEX
8
0
10
6.8050125
20
8.03634375
30
0
0
VERTEX
8
0
10
6.806009375
20
8.036215625
30
0
0
VERTEX
8
0
10
6.807121875
20
8.035809375000001
30
0
0
VERTEX
8
0
10
6.835021875000001
20
8.032215625000001
30
0
0
VERTEX
8
0
10
6.8361937500000005
20
8.032325
30
0
0
VERTEX
8
0
10
6.837196875
20
8.032196875
30
0
0
VERTEX
8
0
10
7.064165625
20
8.032196875
30
0
0
VERTEX
8
0
10
7.183196875
20
7.913165625
30
0
0
VERTEX
8
0
10
7.183196875
20
7.192425
30
0
0
VERTEX
8
0
10
7.176640625
20
7.184493750000001
30
0
42
0.28023496140307835
0
VERTEX
8
0
10
7.1733093750000005
20
7.050718750000001
30
0
0
VERTEX
8
0
10
7.1738968750000005
20
7.049959375
30
0
0
VERTEX
8
0
10
7.17436875
20
7.04894375
30
0
0
VERTEX
8
0
10
7.177559375
20
7.044809375000001
30
0
0
VERTEX
8
0
10
7.2166875
20
6.977040625000001
30
0
0
VERTEX
8
0
10
7.233996875000001
20
6.912440625
30
0
0
VERTEX
8
0
10
7.233996875000001
20
6.7415
30
0
0
VERTEX
8
0
10
6.98
20
6.7415
30
0
0
VERTEX
8
0
10
6.98
20
6.8790000000000004
30
0
0
VERTEX
8
0
10
5.78
20
6.8790000000000004
30
0
0
VERTEX
8
0
10
5.78
20
6.329000000000001
30
0
0
VERTEX
8
0
10
6.98
20
6.329000000000001
30
0
0
VERTEX
8
0
10
6.98
20
6.466493750000001
30
0
0
VERTEX
8
0
10
7.233993750000001
20
6.466493750000001
30
0
0
VERTEX
8
0
10
7.233996875000001
20
6.295556250000001
30
0
0
VERTEX
8
0
10
7.213821875000001
20
6.220268750000001
30
0
42
0.41585424315921965
0
VERTEX
8
0
10
7.304309375000001
20
6.06454375
30
0
0
VERTEX
8
0
10
7.3114375
20
6.063625
30
0
0
VERTEX
8
0
10
7.329259375
20
6.060603125
30
0
0
VERTEX
8
0
10
7.333228125000001
20
6.06081875
30
0
0
VERTEX
8
0
10
7.336493750000001
20
6.060396875
30
0
0
VERTEX
8
0
10
7.5558000000000005
20
6.060396875
30
0
0
VERTEX
8
0
10
7.568746875
20
6.061840625
30
0
0
VERTEX
8
0
10
7.58163125
20
6.063053125000001
30
0
42
0.28478264770884804
0
VERTEX
8
0
10
7.678653125
20
6.1552125
30
0
0
VERTEX
8
0
10
7.67878125
20
6.156209375
30
0
0
VERTEX
8
0
10
7.6791875
20
6.157321875
30
0
0
VERTEX
8
0
10
7.682781250000001
20
6.185221875
30
0
0
VERTEX
8
0
10
7.6826718750000005
20
6.186393750000001
30
0
0
VERTEX
8
0
10
7.6828
20
6.187396875
30
0
0
VERTEX
8
0
10
7.6828
20
6.38816875
30
0
0
VERTEX
8
0
10
7.781228125
20
6.48659375
30
0
0
VERTEX
8
0
10
7.782128125000001
20
6.487721875
30
0
0
VERTEX
8
0
10
7.783250000000001
20
6.488659375
30
0
42
0.3458053809693989
0
VERTEX
8
0
10
7.7984125
20
6.64483125
30
0
0
VERTEX
8
0
10
7.7904687500000005
20
6.654653125
30
0
0
VERTEX
8
0
10
7.78275625
20
6.664646875000001
30
0
42
0.004728288822968946
0
VERTEX
8
0
10
7.780725
20
6.666703125000001
30
0
0
VERTEX
8
0
10
7.774975
20
6.671090625000001
30
0
0
VERTEX
8
0
10
7.7610875
20
6.6825875
30
0
0
VERTEX
8
0
10
7.757546875
20
6.6843843750000005
30
0
0
VERTEX
8
0
10
7.754925
20
6.686384375
30
0
0
VERTEX
8
0
10
7.730040625
20
6.70075
30
0
0
VERTEX
8
0
10
7.682746875
20
6.74804375
30
0
0
VERTEX
8
0
10
7.6493093750000005
20
6.80595625
30
0
0
VERTEX
8
0
10
7.632000000000001
20
6.87055625
30
0
0
VERTEX
8
0
10
7.632000000000001
20
7.300003125
30
0
0
VERTEX
8
0
10
7.886
20
7.300003125
30
0
0
VERTEX
8
0
10
7.886
20
6.904
30
0
0
VERTEX
8
0
10
9.386000000000001
20
6.904
30
0
0
VERTEX
8
0
10
9.386000000000001
20
7.300003125
30
0
0
VERTEX
8
0
10
9.639996875
20
7.300003125
30
0
0
VERTEX
8
0
10
9.639996875
20
6.87055625
30
0
0
VERTEX
8
0
10
9.6226875
20
6.80595625
30
0
0
VERTEX
8
0
10
9.58925
20
6.74804375
30
0
0
VERTEX
8
0
10
9.54195625
20
6.70075
30
0
0
VERTEX
8
0
10
9.517071875000001
20
6.686384375
30
0
42
0.4158647410980777
0
VERTEX
8
0
10
9.470940625
20
6.51228125
30
0
0
VERTEX
8
0
10
9.475346875
20
6.506575000000001
30
0
0
VERTEX
8
0
10
9.485796875
20
6.4918562500000005
30
0
0
VERTEX
8
0
10
9.488759375
20
6.489196875
30
0
0
VERTEX
8
0
10
9.49076875
20
6.48659375
30
0
0
VERTEX
8
0
10
9.589196875
20
6.38816875
30
0
0
VERTEX
8
0
10
9.589196875
20
4.9198312500000005
30
0
0
VERTEX
8
0
10
9.470165625
20
4.800800000000001
30
0
0
VERTEX
8
0
10
7.80183125
20
4.800800000000001
30
0
0
VERTEX
8
0
10
7.6828
20
4.9198312500000005
30
0
0
VERTEX
8
0
10
7.6828
20
5.1206000000000005
30
0
0
VERTEX
8
0
10
7.68135625
20
5.133546875
30
0
0
VERTEX
8
0
10
7.68014375
20
5.14643125
30
0
42
0.28478264770884804
0
VERTEX
8
0
10
7.5879843750000004
20
5.243453125
30
0
0
VERTEX
8
0
10
7.5869875
20
5.24358125
30
0
0
VERTEX
8
0
10
7.585875000000001
20
5.2439875
30
0
0
VERTEX
8
0
10
7.557975000000001
20
5.2475812500000005
30
0
0
VERTEX
8
0
10
7.556803125
20
5.2474718750000005
30
0
0
VERTEX
8
0
10
7.5558000000000005
20
5.2476
30
0
0
VERTEX
8
0
10
7.188571875
20
5.2476
30
0
0
VERTEX
8
0
10
7.183171875
20
5.246996875000001
30
0
0
VERTEX
8
0
10
7.177753125000001
20
5.2471375
30
0
42
0.11143579834837763
0
VERTEX
8
0
10
7.124456250000001
20
5.230228125
30
0
0
VERTEX
8
0
10
7.118731250000001
20
5.225809375
30
0
0
VERTEX
8
0
10
7.110118750000001
20
5.220471875
30
0
0
VERTEX
8
0
10
7.103925
20
5.214384375
30
0
0
VERTEX
8
0
10
7.0987687500000005
20
5.210403125
30
0
0
VERTEX
8
0
10
7.064165625
20
5.175800000000001
30
0
0
VERTEX
8
0
10
6.883396875000001
20
5.175800000000001
30
0
0
VERTEX
8
0
10
6.87045
20
5.174356250000001
30
0
0
VERTEX
8
0
10
6.857565625
20
5.17314375
30
0
42
0.28478264770884804
0
VERTEX
8
0
10
6.76054375
20
5.080984375
30
0
0
VERTEX
8
0
10
6.760415625
20
5.0799875000000005
30
0
0
VERTEX
8
0
10
6.760009375
20
5.078875
30
0
0
VERTEX
8
0
10
6.756415625000001
20
5.050975
30
0
0
VERTEX
8
0
10
6.756525
20
5.049803125
30
0
0
VERTEX
8
0
10
6.756396875
20
5.0488
30
0
0
VERTEX
8
0
10
6.756396875
20
3.583721875
30
0
0
VERTEX
8
0
10
6.7566375
20
3.58155625
30
0
0
VERTEX
8
0
10
6.756471875
20
3.5793937500000004
30
0
42
0.22567172614742487
0
VERTEX
8
0
10
6.80665
20
3.482534375
30
0
0
VERTEX
8
0
10
6.813537500000001
20
3.478584375
30
0
0
VERTEX
8
0
10
6.826896875
20
3.46998125
30
0
0
VERTEX
8
0
10
6.83139375
20
3.468340625
30
0
0
VERTEX
8
0
10
6.834796875
20
3.4663875
30
0
0
VERTEX
8
0
10
6.93990625
20
3.42285
30
0
0
VERTEX
8
0
10
7.23285625
20
3.1299
30
0
0
VERTEX
8
0
10
7.391396875000001
20
2.747153125
30
0
0
VERTEX
8
0
10
7.391396875000001
20
2.3328437500000003
30
0
0
VERTEX
8
0
10
7.23285625
20
1.950096875
30
0
0
VERTEX
8
0
10
6.939900000000001
20
1.657140625
30
0
0
VERTEX
8
0
10
6.557153125
20
1.4986000000000002
30
0
0
VERTEX
8
0
10
6.14284375
20
1.4986000000000002
30
0
0
VERTEX
8
0
10
5.760096875
20
1.657140625
30
0
0
VERTEX
8
0
10
5.467140625
20
1.950096875
30
0
0
VERTEX
8
0
10
5.3086
20
2.3328437500000003
30
0
0
VERTEX
8
0
10
5.3086
20
2.747153125
30
0
0
VERTEX
8
0
10
5.467140625
20
3.1299
30
0
0
VERTEX
8
0
10
5.760090625
20
3.42285
30
0
0
VERTEX
8
0
10
5.865200000000001
20
3.4663875
30
0
0
VERTEX
8
0
10
5.86710625
20
3.4674375
30
0
0
VERTEX
8
0
10
5.869171875
20
3.4681125
30
0
42
0.22566610335151138
0
VERTEX
8
0
10
5.939453125
20
3.5515375000000002
30
0
0
VERTEX
8
0
10
5.940462500000001
20
3.559375
30
0
0
VERTEX
8
0
10
5.943303125
20
3.57505
30
0
0
VERTEX
8
0
10
5.9431
20
3.5798312500000002
30
0
0
VERTEX
8
0
10
5.9436
20
3.583721875
30
0
0
VERTEX
8
0
10
5.9436
20
5.0488
30
0
0
VERTEX
8
0
10
5.94215625
20
5.061746875
30
0
0
VERTEX
8
0
10
5.940943750000001
20
5.07463125
30
0
42
0.28478264770884804
0
VERTEX
8
0
10
5.848784375
20
5.171653125000001
30
0
0
VERTEX
8
0
10
5.8477875
20
5.17178125
30
0
0
VERTEX
8
0
10
5.846675
20
5.172187500000001
30
0
0
VERTEX
8
0
10
5.8187750000000005
20
5.17578125
30
0
0
VERTEX
8
0
10
5.817603125000001
20
5.175671875
30
0
0
VERTEX
8
0
10
5.8166
20
5.175800000000001
30
0
0
VERTEX
8
0
10
5.69583125
20
5.175800000000001
30
0
0
VERTEX
8
0
10
5.5768
20
5.2948312500000005
30
0
0
VERTEX
8
0
10
5.5768
20
5.7114625000000006
30
0
0
VERTEX
8
0
10
5.576078125
20
5.7179343750000005
30
0
0
VERTEX
8
0
10
5.5761343750000005
20
5.724446875
30
0
42
0.5622211703077746
0
VERTEX
8
0
10
5.380531250000001
20
5.8171125
30
0
0
VERTEX
8
0
10
5.37306875
20
5.8126625
30
0
0
VERTEX
8
0
10
5.3657312500000005
20
5.805690625
30
0
0
VERTEX
8
0
10
5.359996875
20
5.801265625
30
0
0
VERTEX
8
0
10
5.084137500000001
20
5.525403125
30
0
0
VERTEX
8
0
10
4.8063343750000005
20
5.2476
30
0
0
VERTEX
8
0
10
4.58856875
20
5.2476
30
0
0
VERTEX
8
0
10
4.5831687500000005
20
5.246996875000001
30
0
0
VERTEX
8
0
10
4.577746875
20
5.2471375
30
0
42
0.11142959299852889
0
VERTEX
8
0
10
4.524453125
20
5.230228125
30
0
0
VERTEX
8
0
10
4.518734375
20
5.2258125
30
0
0
VERTEX
8
0
10
4.510115625
20
5.220471875
30
0
0
VERTEX
8
0
10
4.5039125
20
5.214371875
30
0
0
VERTEX
8
0
10
4.498765625
20
5.2104
30
0
0
VERTEX
8
0
10
4.464165625000001
20
5.175800000000001
30
0
0
VERTEX
8
0
10
3.0958343750000004
20
5.175800000000001
30
0
0
VERTEX
8
0
10
3.0750031250000003
20
5.19663125
30
0
42
0.5964061851872227
0
VERTEX
8
0
10
2.8615125000000003
20
5.132565625000001
30
0
0
VERTEX
8
0
10
2.85938125
20
5.124137500000001
30
0
0
VERTEX
8
0
10
2.859121875
20
5.114003125
30
0
0
VERTEX
8
0
10
2.858196875
20
5.10683125
30
0
0
VERTEX
8
0
10
2.858196875
20
4.9198312500000005
30
0
0
VERTEX
8
0
10
2.739165625
20
4.800800000000001
30
0
0
VERTEX
8
0
10
1.803396875
20
4.800800000000001
30
0
0
VERTEX
8
0
10
1.79045
20
4.799356250000001
30
0
0
VERTEX
8
0
10
1.777565625
20
4.79814375
30
0
42
0.28478264770884804
0
VERTEX
8
0
10
1.68054375
20
4.705984375
30
0
0
VERTEX
8
0
10
1.6804156250000002
20
4.7049875000000005
30
0
0
VERTEX
8
0
10
1.680009375
20
4.703875
30
0
0
VERTEX
8
0
10
1.6764156250000002
20
4.675975
30
0
0
VERTEX
8
0
10
1.676525
20
4.674803125
30
0
0
VERTEX
8
0
10
1.676396875
20
4.6738
30
0
0
VERTEX
8
0
10
1.676396875
20
3.583721875
30
0
0
VERTEX
8
0
10
1.6766375
20
3.58155625
30
0
0
VERTEX
8
0
10
1.676471875
20
3.5793937500000004
30
0
42
0.22567172614742487
0
VERTEX
8
0
10
1.72665
20
3.482534375
30
0
0
VERTEX
8
0
10
1.7335375000000002
20
3.478584375
30
0
0
VERTEX
8
0
10
1.746896875
20
3.46998125
30
0
0
VERTEX
8
0
10
1.75139375
20
3.468340625
30
0
0
VERTEX
8
0
10
1.754796875
20
3.4663875
30
0
0
VERTEX
8
0
10
1.85990625
20
3.42285
30
0
0
VERTEX
8
0
10
2.15285625
20
3.1299
30
0
0
VERTEX
8
0
10
2.3113968750000002
20
2.747153125
30
0
0
VERTEX
8
0
10
2.3113968750000002
20
2.3328437500000003
30
0
0
VERTEX
8
0
10
2.15285625
20
1.950096875
30
0
0
VERTEX
8
0
10
1.8599
20
1.657140625
30
0
0
VERTEX
8
0
10
1.477153125
20
1.4986000000000002
30
0
0
VERTEX
8
0
10
1.06284375
20
1.4986000000000002
30
0
0
VERTEX
8
0
10
0.680096875
20
1.657140625
30
0
0
VERTEX
8
0
10
0.4708
20
1.866440625
30
0
0
VERTEX
8
0
10
0.46570625000000004
20
1.8705125
30
0
0
VERTEX
8
0
10
0.461146875
20
1.87515
30
0
42
0.5621974582242439
0
VERTEX
8
0
10
0.2573125
20
1.8023718750000002
30
0
0
VERTEX
8
0
10
0.25518125
20
1.793940625
30
0
0
VERTEX
8
0
10
0.254921875
20
1.7838125
30
0
0
VERTEX
8
0
10
0.253996875
20
1.7766375
30
0
0
VERTEX
8
0
10
0.253996875
20
0.380996875
30
0
0
VERTEX
8
0
10
0.25544062500000003
20
0.36805000000000004
30
0
0
VERTEX
8
0
10
0.25665312500000004
20
0.35516562500000004
30
0
42
0.28478264770884804
0
VERTEX
8
0
10
0.3488125
20
0.25814375
30
0
0
VERTEX
8
0
10
0.34980937500000003
20
0.258015625
30
0
0
VERTEX
8
0
10
0.350921875
20
0.25760937500000003
30
0
0
VERTEX
8
0
10
0.37882187500000003
20
0.254015625
30
0
0
VERTEX
8
0
10
0.37999375
20
0.254125
30
0
0
VERTEX
8
0
10
0.380996875
20
0.253996875
30
0
0
VERTEX
8
0
10
9.779
20
0.253996875
30
0
0
VERTEX
8
0
10
9.791946875
20
0.25544062500000003
30
0
0
VERTEX
8
0
10
9.804831250000001
20
0.25665312500000004
30
0
42
0.28478264770884804
0
VERTEX
8
0
10
9.901853125
20
0.3488125
30
0
0
VERTEX
8
0
10
9.90198125
20
0.34980937500000003
30
0
0
VERTEX
8
0
10
9.9023875
20
0.350921875
30
0
0
VERTEX
8
0
10
9.90598125
20
0.37882187500000003
30
0
0
VERTEX
8
0
10
9.905871875
20
0.37999375
30
0
0
VERTEX
8
0
10
9.906
20
0.380996875
30
0
0
VERTEX
8
0
10
9.906
20
1.7766375
30
0
0
VERTEX
8
0
10
9.905278125
20
1.783109375
30
0
0
VERTEX
8
0
10
9.905334375
20
1.7896218750000001
30
0
42
0.5622211703077746
0
VERTEX
8
0
10
9.70973125
20
1.8822875000000001
30
0
0
VERTEX
8
0
10
9.70226875
20
1.8778375
30
0
0
VERTEX
8
0
10
9.69493125
20
1.8708656250000002
30
0
0
VERTEX
8
0
10
9.689196875
20
1.866440625
30
0
0
VERTEX
8
0
10
9.4799
20
1.657140625
30
0
0
VERTEX
8
0
10
9.097153125
20
1.4986000000000002
30
0
0
VERTEX
8
0
10
8.68284375
20
1.4986000000000002
30
0
0
VERTEX
8
0
10
8.300096875000001
20
1.657140625
30
0
0
VERTEX
8
0
10
8.007140625
20
1.950096875
30
0
0
VERTEX
8
0
10
7.8486
20
2.3328437500000003
30
0
0
VERTEX
8
0
10
7.8486
20
2.747153125
30
0
0
VERTEX
8
0
10
8.007140625
20
3.1299
30
0
0
VERTEX
8
0
10
8.300096875000001
20
3.42285625
30
0
0
VERTEX
8
0
10
8.68284375
20
3.5813968750000003
30
0
0
VERTEX
8
0
10
9.097153125
20
3.5813968750000003
30
0
0
VERTEX
8
0
10
9.4799
20
3.42285625
30
0
0
VERTEX
8
0
10
9.689196875
20
3.2135562500000003
30
0
0
VERTEX
8
0
10
9.694290625
20
3.209484375
30
0
0
VERTEX
8
0
10
9.69885
20
3.2048468750000003
30
0
42
0.5621974582242439
0
VERTEX
8
0
10
9.902684375
20
3.277625
30
0
0
VERTEX
8
0
10
9.904815625000001
20
3.28605625
30
0
0
VERTEX
8
0
10
9.905075
20
3.296184375
30
0
0
VERTEX
8
0
10
9.906
20
3.3033593750000003
30
0
0
VERTEX
8
0
10
9.906
20
12.700003125
30
0
0
VERTEX
8
0
10
9.9053875
20
12.7055
30
0
0
VERTEX
8
0
10
9.905609375000001
20
12.70996875
30
0
0
VERTEX
8
0
10
9.879028125
20
13.047706250000001
30
0
0
VERTEX
8
0
10
9.873728125000001
20
13.075331250000001
30
0
0
VERTEX
8
0
10
9.873353125000001
20
13.076190625
30
0
0
VERTEX
8
0
10
9.873203125
20
13.076987500000001
30
0
0
VERTEX
8
0
10
9.664465625
20
13.719409375000001
30
0
0
VERTEX
8
0
10
9.66294375
20
13.72276875
30
0
0
VERTEX
8
0
10
9.661990625
20
13.726337500000001
30
0
0
VERTEX
8
0
10
9.65813125
20
13.733396875
30
0
0
VERTEX
8
0
10
9.652862500000001
20
13.745034375000001
30
0
0
VERTEX
8
0
10
9.64891875
20
13.750256250000001
30
0
0
VERTEX
8
0
10
9.646428125
20
13.754809375
30
0
0
VERTEX
8
0
10
9.249390625
20
14.301290625
30
0
0
VERTEX
8
0
10
9.24689375
20
14.304028125
30
0
0
VERTEX
8
0
10
9.244890625
20
14.30711875
30
0
0
VERTEX
8
0
10
9.239059375
20
14.312621875000001
30
0
0
VERTEX
8
0
10
9.2304375
20
14.322078125
30
0
0
VERTEX
8
0
10
9.2250625
20
14.32583125
30
0
0
VERTEX
8
0
10
9.221290625
20
14.329390625
30
0
0
VERTEX
8
0
10
8.674809375
20
14.726428125
30
0
0
VERTEX
8
0
10
8.6716
20
14.728256250000001
30
0
0
VERTEX
8
0
10
8.668734375
20
14.730578125000001
30
0
0
VERTEX
8
0
10
8.66148125
20
14.7340125
30
0
0
VERTEX
8
0
10
8.6503625
20
14.740340625
30
0
0
VERTEX
8
0
10
8.644090625
20
14.74225
30
0
0
VERTEX
8
0
10
8.639409375
20
14.744465625
30
0
0
VERTEX
8
0
10
7.9969875
20
14.953203125
30
0
0
VERTEX
8
0
10
7.9694343750000005
20
14.958878125
30
0
0
VERTEX
8
0
10
7.968506250000001
20
14.958859375000001
30
0
0
VERTEX
8
0
10
7.96770625
20
14.959028125000001
30
0
0
VERTEX
8
0
10
7.6299656250000005
20
14.985609375000001
30
0
0
VERTEX
8
0
10
7.6244375
20
14.985431250000001
30
0
0
VERTEX
8
0
10
7.6200375000000005
20
14.985996875000001
30
0
0
VERTEX
8
0
10
7.620025
20
14.985996875000001
30
0
0
VERTEX
8
0
10
7.62
20
14.986
30
0
0
VERTEX
8
0
10
2.539996875
20
14.986
30
0
0
VERTEX
8
0
10
2.5399687500000003
20
14.985996875000001
30
0
0
VERTEX
8
0
10
2.53995625
20
14.985996875000001
30
0
0
VERTEX
8
0
10
2.534490625
20
14.9853875
30
0
0
VERTEX
8
0
10
2.53003125
20
14.985609375000001
30
0
0
VERTEX
8
0
10
2.192290625
20
14.959028125000001
30
0
0
VERTEX
8
0
10
2.164665625
20
14.953728125000001
30
0
0
VERTEX
8
0
10
2.16380625
20
14.953353125000001
30
0
0
VERTEX
8
0
10
2.163009375
20
14.953203125
30
0
0
VERTEX
8
0
10
1.5205875
20
14.744465625
30
0
0
VERTEX
8
0
10
1.5172281250000001
20
14.74294375
30
0
0
VERTEX
8
0
10
1.513659375
20
14.741990625000001
30
0
0
VERTEX
8
0
10
1.5066000000000002
20
14.73813125
30
0
0
VERTEX
8
0
10
1.4949625
20
14.732862500000001
30
0
0
VERTEX
8
0
10
1.489740625
20
14.72891875
30
0
0
VERTEX
8
0
10
1.4851875
20
14.726428125
30
0
0
VERTEX
8
0
10
0.9387062500000001
20
14.329390625
30
0
0
VERTEX
8
0
10
0.935978125
20
14.326903125000001
30
0
0
VERTEX
8
0
10
0.932878125
20
14.324893750000001
30
0
0
VERTEX
8
0
10
0.927353125
20
14.319040625000001
30
0
0
VERTEX
8
0
10
0.91791875
20
14.3104375
30
0
0
VERTEX
8
0
10
0.9148625
20
14.306062500000001
30
0
0
VERTEX
8
0
10
0.912915625
20
14.304146875
30
0
0
VERTEX
8
0
10
0.91209375
20
14.30286875
30
0
0
VERTEX
8
0
10
0.9106062500000001
20
14.301293750000001
30
0
0
VERTEX
8
0
10
0.51356875
20
13.754815625
30
0
0
VERTEX
8
0
10
0.5117375000000001
20
13.751596875
30
0
0
VERTEX
8
0
10
0.50941875
20
13.7487375
30
0
0
VERTEX
8
0
10
0.5059781250000001
20
13.741475000000001
30
0
0
VERTEX
8
0
10
0.499659375
20
13.730365625000001
30
0
0
VERTEX
8
0
10
0.49775625
20
13.724109375000001
30
0
0
VERTEX
8
0
10
0.49553125000000003
20
13.7194125
30
0
0
VERTEX
8
0
10
0.28679375
20
13.076990625
30
0
0
VERTEX
8
0
10
0.28111875000000003
20
13.0494375
30
0
0
VERTEX
8
0
10
0.28113750000000004
20
13.048509375
30
0
0
VERTEX
8
0
10
0.28096875
20
13.047712500000001
30
0
0
VERTEX
8
0
10
0.27937812500000003
20
13.027509375000001
30
0
0
VERTEX
8
0
10
0.279871875
20
13.012296875
30
0
0
VERTEX
8
0
10
0.280271875
20
12.999534375000001
30
0
0
VERTEX
8
0
10
0.2802875
20
12.999471875000001
30
0
0
VERTEX
8
0
10
0.280290625
20
12.999393750000001
30
0
0
VERTEX
8
0
10
0.28423437500000004
20
12.98421875
30
0
0
VERTEX
8
0
10
0.28731875
20
12.9723
30
0
42
0.00016326059948969303
0
VERTEX
8
0
10
0.28736875
20
12.97216875
30
0
0
VERTEX
8
0
10
0.288728125
20
12.969537500000001
30
0
0
VERTEX
8
0
10
0.28701875
20
12.9659625
30
0
0
VERTEX
8
0
10
0.28424375
20
12.961809375000001
30
0
42
0.03586885544629886
0
VERTEX
8
0
10
0.27705
20
12.94509375
30
0
0
VERTEX
8
0
10
0.276134375
20
12.940721875000001
30
0
0
VERTEX
8
0
10
0.274146875
20
12.935556250000001
30
0
42
0.044452107443003305
0
VERTEX
8
0
10
0.270390625
20
12.913334375
30
0
0
VERTEX
8
0
10
0.2543875
20
12.709962500000001
30
0
0
VERTEX
8
0
10
0.254515625
20
12.706046875
30
0
0
VERTEX
8
0
10
0.254015625
20
12.702171875000001
30
0
0
VERTEX
8
0
10
0.254125
20
12.701
30
0
0
VERTEX
8
0
10
0.253996875
20
12.700000000000001
30
0
0
VERTEX
8
0
10
0.253996875
20
3.3033593750000003
30
0
0
VERTEX
8
0
10
0.25471875
20
3.2968875
30
0
0
VERTEX
8
0
10
0.2546625
20
3.290375
30
0
42
0.5622211703077746
0
VERTEX
8
0
10
0.450265625
20
3.197709375
30
0
0
VERTEX
8
0
10
0.45772812500000004
20
3.2021593750000004
30
0
0
VERTEX
8
0
10
0.46506562500000004
20
3.20913125
30
0
0
VERTEX
8
0
10
0.4708
20
3.2135562500000003
30
0
0
VERTEX
8
0
10
0.68009375
20
3.422853125
30
0
0
VERTEX
8
0
10
0.7852
20
3.4663875
30
0
0
VERTEX
8
0
10
0.78710625
20
3.4674375
30
0
0
VERTEX
8
0
10
0.7891718750000001
20
3.4681125
30
0
42
0.22566610335151138
0
VERTEX
8
0
10
0.859453125
20
3.5515375000000002
30
0
0
VERTEX
8
0
10
0.8604625
20
3.559375
30
0
0
VERTEX
8
0
10
0.8633031250000001
20
3.57505
30
0
0
VERTEX
8
0
10
0.8631000000000001
20
3.5798312500000002
30
0
0
VERTEX
8
0
10
0.8636
20
3.583721875
30
0
0
VERTEX
8
0
10
0.8636
20
5.1873375
30
0
0
VERTEX
8
0
10
0.9146000000000001
20
5.238334375
30
0
42
0.13307708442897254
0
VERTEX
8
0
10
0.9476531250000001
20
5.2959531250000005
30
0
0
VERTEX
8
0
10
0.9485750000000001
20
5.303115625
30
0
0
VERTEX
8
0
10
0.9508937500000001
20
5.312990625
30
0
0
VERTEX
8
0
10
0.95096875
20
5.32168125
30
0
0
VERTEX
8
0
10
0.9518000000000001
20
5.3281375
30
0
0
VERTEX
8
0
10
0.9518000000000001
20
6.38816875
30
0
0
VERTEX
8
0
10
1.050228125
20
6.48659375
30
0
0
VERTEX
8
0
10
1.051128125
20
6.487721875
30
0
0
VERTEX
8
0
10
1.0522500000000001
20
6.488659375
30
0
42
0.3458053809693989
0
VERTEX
8
0
10
1.0674125
20
6.64483125
30
0
0
VERTEX
8
0
10
1.05946875
20
6.654653125
30
0
0
VERTEX
8
0
10
1.05175625
20
6.664646875000001
30
0
42
0.004728288822968946
0
VERTEX
8
0
10
1.049725
20
6.666703125000001
30
0
0
VERTEX
8
0
10
1.043975
20
6.671090625000001
30
0
0
VERTEX
8
0
10
1.0300875
20
6.6825875
30
0
0
VERTEX
8
0
10
1.026546875
20
6.6843843750000005
30
0
0
VERTEX
8
0
10
1.023925
20
6.686384375
30
0
0
VERTEX
8
0
10
0.999040625
20
6.70075
30
0
0
VERTEX
8
0
10
0.951746875
20
6.74804375
30
0
0
VERTEX
8
0
10
0.9183093750000001
20
6.80595625
30
0
0
VERTEX
8
0
10
0.901
20
6.87055625
30
0
0
VERTEX
8
0
10
0.901
20
7.300003125
30
0
0
VERTEX
8
0
10
1.155
20
7.300003125
30
0
0
VERTEX
8
0
10
1.155
20
6.904
30
0
0
VERTEX
8
0
10
2.6550000000000002
20
6.904
30
0
0
VERTEX
8
0
10
2.6550000000000002
20
8.204
30
0
0
VERTEX
8
0
10
2.158990625
20
8.204
30
0
0
VERTEX
8
0
10
2.158990625
20
8.4860375
30
0
0
VERTEX
8
0
10
2.1583875
20
8.4914375
30
0
0
VERTEX
8
0
10
2.158528125
20
8.49685625
30
0
42
0.11143579834837763
0
VERTEX
8
0
10
2.14161875
20
8.550153125
30
0
0
VERTEX
8
0
10
2.1372
20
8.555878125
30
0
0
VERTEX
8
0
10
2.1318625
20
8.564490625000001
30
0
0
VERTEX
8
0
10
2.125775
20
8.570684375
30
0
0
VERTEX
8
0
10
2.12179375
20
8.575840625
30
0
0
VERTEX
8
0
10
2.0068
20
8.69083125
30
0
0
VERTEX
8
0
10
2.0068
20
10.359165625000001
30
0
0
VERTEX
8
0
10
2.12583125
20
10.478196875
30
0
0
VERTEX
8
0
10
3.594165625
20
10.478196875
30
0
0
VERTEX
8
0
10
3.72019375
20
10.352165625000001
30
0
0
VERTEX
8
0
10
3.730340625
20
10.344053125
30
0
0
VERTEX
8
0
10
3.7403375000000003
20
10.335778125000001
30
0
42
0.28478826238927635
0
VERTEX
8
0
10
3.8741125000000003
20
10.332340625
30
0
0
VERTEX
8
0
10
3.874909375
20
10.33295625
30
0
0
VERTEX
8
0
10
3.875978125
20
10.333453125
30
0
0
VERTEX
8
0
10
3.8982468750000003
20
10.350640625
30
0
0
VERTEX
8
0
10
3.8989937500000003
20
10.351543750000001
30
0
0
VERTEX
8
0
10
3.8998000000000004
20
10.352165625000001
30
0
0
VERTEX
8
0
10
4.02583125
20
10.478196875
30
0
0
VERTEX
8
0
10
4.957156250000001
20
10.478196875
30
0
0
VERTEX
8
0
10
4.96455625
20
10.479021875
30
0
0
VERTEX
8
0
10
4.972015625
20
10.47906875
30
0
0
VERTEX
8
0
10
4.9785031250000005
20
10.480575
30
0
0
VERTEX
8
0
10
4.9851125000000005
20
10.481312500000001
30
0
42
0.15462707407565257
0
VERTEX
8
0
10
5.050934375000001
20
10.520390625000001
30
0
0
VERTEX
8
0
10
5.055668750000001
20
10.525046875000001
30
0
42
0.3940303794111777
0
VERTEX
8
0
10
5.043559375
20
10.697503125
30
0
0
VERTEX
8
0
10
5.03898125
20
10.702321875
30
0
42
0.08500946350125177
0
VERTEX
8
0
10
5.002000000000001
20
10.724015625
30
0
0
VERTEX
8
0
10
4.996340625
20
10.72535625
30
0
0
VERTEX
8
0
10
4.9893406250000005
20
10.72805
30
0
0
VERTEX
8
0
10
4.9798125
20
10.729278125
30
0
0
VERTEX
8
0
10
4.970428125000001
20
10.731503125
30
0
0
VERTEX
8
0
10
4.907581250000001
20
10.738106250000001
30
0
0
VERTEX
8
0
10
4.900062500000001
20
10.738059375
30
0
0
VERTEX
8
0
10
4.894309375000001
20
10.738800000000001
30
0
0
VERTEX
8
0
10
4.68989375
20
10.738800000000001
30
0
0
VERTEX
8
0
10
4.635134375
20
10.761481250000001
30
0
42
0.007939576934011644
0
VERTEX
8
0
10
4.6313843750000006
20
10.762965625
30
0
0
VERTEX
8
0
10
4.62375
20
10.764775
30
0
0
VERTEX
8
0
10
4.6081125
20
10.769300000000001
30
0
0
VERTEX
8
0
10
4.60349375
20
10.769575
30
0
0
VERTEX
8
0
10
4.599809375
20
10.77045
30
0
0
VERTEX
8
0
10
4.457896875
20
10.785365625
30
0
0
VERTEX
8
0
10
4.161515625
20
10.956484375
30
0
0
VERTEX
8
0
10
4.152703125
20
10.96034375
30
0
0
VERTEX
8
0
10
4.146615625
20
10.963834375000001
30
0
0
VERTEX
8
0
10
3.9690687500000004
20
11.037375
30
0
0
VERTEX
8
0
10
3.9093906250000003
20
11.097053125
30
0
0
VERTEX
8
0
10
3.9091125
20
11.097275
30
0
0
VERTEX
8
0
10
3.9088875
20
11.097553125000001
30
0
0
VERTEX
8
0
10
3.9062187500000003
20
11.099590625000001
30
0
0
VERTEX
8
0
10
3.88741875
20
11.11461875
30
0
0
VERTEX
8
0
10
3.88493125
20
11.115828125
30
0
0
VERTEX
8
0
10
3.8830875000000002
20
11.117234375
30
0
0
VERTEX
8
0
10
3.732934375
20
11.203925
30
0
0
VERTEX
8
0
10
3.5539343750000003
20
11.4503
30
0
0
VERTEX
8
0
10
3.5458156250000004
20
11.459206250000001
30
0
0
VERTEX
8
0
10
3.540990625
20
11.46545625
30
0
0
VERTEX
8
0
10
3.4173781250000004
20
11.589068750000001
30
0
0
VERTEX
8
0
10
3.3757375
20
11.689596875000001
30
0
0
VERTEX
8
0
10
3.362159375
20
11.714234375
30
0
0
VERTEX
8
0
10
3.361534375
20
11.714940625
30
0
0
VERTEX
8
0
10
3.361146875
20
11.715646875000001
30
0
0
VERTEX
8
0
10
3.2408843750000003
20
11.881171875
30
0
0
VERTEX
8
0
10
3.184815625
20
12.1449625
30
0
0
VERTEX
8
0
10
3.180028125
20
12.159393750000001
30
0
0
VERTEX
8
0
10
3.177921875
20
12.1671625
30
0
0
VERTEX
8
0
10
3.1188000000000002
20
12.309890625000001
30
0
0
VERTEX
8
0
10
3.1188000000000002
20
12.442184375
30
0
0
VERTEX
8
0
10
3.11648125
20
12.462984375000001
30
0
0
VERTEX
8
0
10
3.116025
20
12.4685875
30
0
0
VERTEX
8
0
10
3.0668375
20
12.699996875
30
0
0
VERTEX
8
0
10
3.116025
20
12.93140625
30
0
0
VERTEX
8
0
10
3.1180875
20
12.95228125
30
0
0
VERTEX
8
0
10
3.1188000000000002
20
12.957812500000001
30
0
0
VERTEX
8
0
10
3.1188000000000002
20
13.09010625
30
0
0
VERTEX
8
0
10
3.177921875
20
13.232834375000001
30
0
0
VERTEX
8
0
10
3.1821468750000004
20
13.247434375000001
30
0
0
VERTEX
8
0
10
3.184815625
20
13.255034375000001
30
0
0
VERTEX
8
0
10
3.2408843750000003
20
13.518825000000001
30
0
0
VERTEX
8
0
10
3.361146875
20
13.68435
30
0
0
VERTEX
8
0
10
3.375059375
20
13.7088
30
0
0
VERTEX
8
0
10
3.3753312500000003
20
13.709690625
30
0
0
VERTEX
8
0
10
3.3757375
20
13.7104
30
0
0
VERTEX
8
0
10
3.4173781250000004
20
13.810928125
30
0
0
VERTEX
8
0
10
3.540990625
20
13.934540625
30
0
0
VERTEX
8
0
10
3.548525
20
13.943965625
30
0
0
VERTEX
8
0
10
3.5539343750000003
20
13.949696875
30
0
0
VERTEX
8
0
10
3.732934375
20
14.196071875000001
30
0
0
VERTEX
8
0
10
3.8830875000000002
20
14.2827625
30
0
0
VERTEX
8
0
10
3.8833718750000004
20
14.282971875000001
30
0
0
VERTEX
8
0
10
3.8837031250000003
20
14.28311875
30
0
0
VERTEX
8
0
10
3.8864187500000003
20
14.285215625000001
30
0
0
VERTEX
8
0
10
3.905740625
20
14.2994375
30
0
0
VERTEX
8
0
10
3.907546875
20
14.301521875
30
0
0
VERTEX
8
0
10
3.9093906250000003
20
14.30294375
30
0
0
VERTEX
8
0
10
3.9690687500000004
20
14.362621875
30
0
0
VERTEX
8
0
10
4.146615625
20
14.4361625
30
0
0
VERTEX
8
0
10
4.155065625
20
14.44081875
30
0
0
VERTEX
8
0
10
4.161515625
20
14.4435125
30
0
0
VERTEX
8
0
10
4.457896875
20
14.61463125
30
0
0
VERTEX
8
0
10
4.599809375
20
14.629546875
30
0
0
VERTEX
8
0
10
4.601784375
20
14.629978125000001
30
0
0
VERTEX
8
0
10
4.603815625
20
14.63003125
30
0
0
VERTEX
8
0
10
4.6113968750000005
20
14.632084375000002
30
0
0
VERTEX
8
0
10
4.6272875
20
14.635565625
30
0
0
VERTEX
8
0
10
4.631471875
20
14.637521875000001
30
0
0
VERTEX
8
0
10
4.635134375
20
14.638515625
30
0
0
VERTEX
8
0
10
4.68989375
20
14.661196875
30
0
0
VERTEX
8
0
10
4.894309375000001
20
14.661196875
30
0
0
VERTEX
8
0
10
4.901778125
20
14.662028125
30
0
0
VERTEX
8
0
10
4.907584375
20
14.66189375
30
0
0
VERTEX
8
0
10
5.290428125
20
14.70213125
30
0
0
VERTEX
8
0
10
5.397278125000001
20
14.667412500000001
30
0
0
VERTEX
8
0
10
5.400903125
20
14.666665625
30
0
0
VERTEX
8
0
10
5.404340625000001
20
14.66534375
30
0
0
VERTEX
8
0
10
5.412303125
20
14.664318750000001
30
0
0
VERTEX
8
0
10
5.42483125
20
14.661737500000001
30
0
0
VERTEX
8
0
10
5.431375
20
14.661859375
30
0
0
VERTEX
8
0
10
5.4365250000000005
20
14.661196875
30
0
0
VERTEX
8
0
10
5.4701125
20
14.661196875
30
0
0
VERTEX
8
0
10
5.660871875000001
20
14.582181250000001
30
0
0
VERTEX
8
0
10
5.66618125
20
14.58064375
30
0
0
VERTEX
8
0
10
5.670228125
20
14.578728125000001
30
0
0
VERTEX
8
0
10
6.086578125
20
14.44345
30
0
0
VERTEX
8
0
10
6.1477
20
14.388412500000001
30
0
0
VERTEX
8
0
10
6.1520625
20
14.385284375000001
30
0
0
VERTEX
8
0
10
6.1559375
20
14.381603125
30
0
0
VERTEX
8
0
10
6.1622312500000005
20
14.377990625
30
0
0
VERTEX
8
0
10
6.1705625
20
14.37201875
30
0
0
VERTEX
8
0
10
6.1784875
20
14.368668750000001
30
0
0
VERTEX
8
0
10
6.184084375
20
14.365456250000001
30
0
0
VERTEX
8
0
10
6.190928125
20
14.362621875
30
0
0
VERTEX
8
0
10
6.320421875
20
14.233128125
30
0
0
VERTEX
8
0
10
6.323278125
20
14.23084375
30
0
0
VERTEX
8
0
10
6.325246875
20
14.228553125000001
30
0
0
VERTEX
8
0
10
6.7086781250000005
20
13.8833125
30
0
0
VERTEX
8
0
10
6.7299500000000005
20
13.835528125000002
30
0
0
VERTEX
8
0
10
6.7335062500000005
20
13.829453125
30
0
0
VERTEX
8
0
10
6.736365625
20
13.823028125
30
0
0
VERTEX
8
0
10
6.739053125000001
20
13.819546875
30
0
0
VERTEX
8
0
10
6.764915625
20
13.7571125
30
0
0
VERTEX
8
0
10
6.7657875
20
13.75553125
30
0
0
VERTEX
8
0
10
6.7662281250000005
20
13.754056250000001
30
0
0
VERTEX
8
0
10
7.049168750000001
20
13.118562500000001
30
0
0
VERTEX
8
0
10
7.049168750000001
20
12.281437500000001
30
0
0
VERTEX
8
0
10
6.872240625000001
20
11.884053125000001
30
0
0
VERTEX
8
0
10
6.868784375000001
20
11.8731875
30
0
0
VERTEX
8
0
10
6.864871875
20
11.862471875
30
0
42
0.4092039226159622
0
VERTEX
8
0
10
6.956075
20
11.70954375
30
0
0
VERTEX
8
0
10
6.9585125
20
11.709228125000001
30
0
0
VERTEX
8
0
10
6.961281250000001
20
11.708296875
30
0
0
VERTEX
8
0
10
6.984034375
20
11.705940625
30
0
0
VERTEX
8
0
10
6.988259375
20
11.705396875
30
0
0
VERTEX
8
0
10
7.242571875
20
11.705396875
30
0
0
VERTEX
8
0
10
7.483815625
20
11.60546875
30
0
0
VERTEX
8
0
10
7.668468750000001
20
11.420815625000001
30
0
0
VERTEX
8
0
10
7.75666875
20
11.207884375
30
0
0
VERTEX
8
0
10
7.759803125
20
11.202196875
30
0
0
VERTEX
8
0
10
7.762250000000001
20
11.196140625
30
0
42
0.5622276226903692
0
VERTEX
8
0
10
7.978428125000001
20
11.185387500000001
30
0
0
VERTEX
8
0
10
7.983618750000001
20
11.192353125
30
0
0
VERTEX
8
0
10
7.9877343750000005
20
11.201606250000001
30
0
0
VERTEX
8
0
10
7.991334375
20
11.207884375
30
0
0
VERTEX
8
0
10
8.079534375
20
11.420821875
30
0
0
VERTEX
8
0
10
8.26418125
20
11.60546875
30
0
0
VERTEX
8
0
10
8.505425
20
11.705396875
30
0
0
VERTEX
8
0
10
8.766571875
20
11.705396875
30
0
0
VERTEX
8
0
10
9.007815625000001
20
11.60546875
30
0
0
VERTEX
8
0
10
9.19246875
20
11.420815625000001
30
0
0
VERTEX
8
0
10
9.292396875
20
11.179571875
30
0
0
VERTEX
8
0
10
9.292396875
20
10.918425000000001
30
0
0
VERTEX
8
0
10
9.1828
20
10.6538375
30
0
0
VERTEX
8
0
10
9.182575
20
10.6530625
30
0
0
VERTEX
8
0
10
9.182078125
20
10.652128125
30
0
42
0.05189170754723702
0
VERTEX
8
0
10
9.174978125
20
10.62681875
30
0
0
VERTEX
8
0
10
9.174934375000001
20
10.626065625
30
0
0
VERTEX
8
0
10
9.174640625
20
10.625
30
0
42
0.034874573024372475
0
VERTEX
8
0
10
9.17310625
20
10.607371875
30
0
0
VERTEX
8
0
10
9.1735375
20
10.602778125
30
0
0
VERTEX
8
0
10
9.173296875
20
10.5987375
30
0
0
VERTEX
8
0
10
9.173412500000001
20
10.5980375
30
0
0
VERTEX
8
0
10
9.173359375
20
10.596896875
30
0
42
0.03487066108378879
0
VERTEX
8
0
10
9.17574375
20
10.579365625000001
30
0
0
VERTEX
8
0
10
9.17719375
20
10.574925
30
0
0
VERTEX
8
0
10
9.177840625
20
10.570975
30
0
0
VERTEX
8
0
10
9.1780875
20
10.570365625
30
0
0
VERTEX
8
0
10
9.17829375
20
10.569203125000001
30
0
42
0.03487291608927666
0
VERTEX
8
0
10
9.184478125
20
10.552625
30
0
0
VERTEX
8
0
10
9.186896875
20
10.548568750000001
30
0
0
VERTEX
8
0
10
9.18838125
20
10.544896875000001
30
0
0
VERTEX
8
0
10
9.18874375
20
10.544375
30
0
0
VERTEX
8
0
10
9.18920625
20
10.543275000000001
30
0
42
0.03487114854721196
0
VERTEX
8
0
10
9.1988875
20
10.528465625
30
0
0
VERTEX
8
0
10
9.202146875
20
10.525034375
30
0
0
VERTEX
8
0
10
9.20440625
20
10.521775
30
0
0
VERTEX
8
0
10
9.204868750000001
20
10.52135
30
0
0
VERTEX
8
0
10
9.20555625
20
10.5203875
30
0
42
0.03487595672417318
0
VERTEX
8
0
10
9.2182625
20
10.508071875
30
0
0
VERTEX
8
0
10
9.22219375
20
10.505443750000001
30
0
0
VERTEX
8
0
10
9.225128125000001
20
10.50275
30
0
0
VERTEX
8
0
10
9.225659375000001
20
10.502443750000001
30
0
0
VERTEX
8
0
10
9.226543750000001
20
10.50165625
30
0
42
0.034875657463997976
0
VERTEX
8
0
10
9.24165
20
10.492440625
30
0
0
VERTEX
8
0
10
9.24605
20
10.49075
30
0
0
VERTEX
8
0
10
9.249528125000001
20
10.488753125
30
0
0
VERTEX
8
0
10
9.250128125
20
10.48856875
30
0
0
VERTEX
8
0
10
9.251140625
20
10.48800625
30
0
42
0.052061675677273794
0
VERTEX
8
0
10
9.276412500000001
20
10.480471875000001
30
0
0
VERTEX
8
0
10
9.277062500000001
20
10.480421875000001
30
0
0
VERTEX
8
0
10
9.278140625
20
10.48010625
30
0
0
VERTEX
8
0
10
9.292040625
20
10.479234375
30
0
0
VERTEX
8
0
10
9.3000875
20
10.478196875
30
0
0
VERTEX
8
0
10
9.431165625
20
10.478196875
30
0
0
VERTEX
8
0
10
9.550196875000001
20
10.359165625000001
30
0
0
VERTEX
8
0
10
9.550196875000001
20
8.690828125000001
30
0
0
VERTEX
8
0
10
9.484428125
20
8.6250625
30
0
0
VERTEX
8
0
10
9.483525
20
8.623934375000001
30
0
0
VERTEX
8
0
10
9.482403125000001
20
8.622993750000001
30
0
42
0.37382227232093457
0
VERTEX
8
0
10
9.475159375
20
8.457040625000001
30
0
0
VERTEX
8
0
10
9.4829
20
8.447009375
30
0
0
VERTEX
8
0
10
9.484025
20
8.446078125
30
0
0
VERTEX
8
0
10
9.484934375
20
8.444953125
30
0
0
VERTEX
8
0
10
9.49063125
20
8.44060625
30
0
0
VERTEX
8
0
10
9.504565625
20
8.42906875
30
0
0
VERTEX
8
0
10
9.508121875
20
8.427262500000001
30
0
0
VERTEX
8
0
10
9.510734375
20
8.425271875
30
0
0
VERTEX
8
0
10
9.541953125000001
20
8.407250000000001
30
0
0
VERTEX
8
0
10
9.58925
20
8.359953125
30
0
0
VERTEX
8
0
10
9.6226875
20
8.302040625
30
0
0
VERTEX
8
0
10
9.639996875
20
8.237440625
30
0
0
VERTEX
8
0
10
9.639996875
20
7.807990625
30
0
0
VERTEX
8
0
10
9.386000000000001
20
7.807990625
30
0
0
VERTEX
8
0
10
9.386000000000001
20
8.204
30
0
0
SEQEND
0
POLYLINE
66
1
8
1_copper
10
0.0
20
0.0
30
0.0
70
1
0
VERTEX
8
0
10
1.256046875
20
11.700000000000001
30
0
0
VERTEX
8
0
10
0.79195
20
11.96795
30
0
0
VERTEX
8
0
10
0.524
20
12.432046875000001
30
0
0
VERTEX
8
0
10
0.524
20
12.903371875000001
30
0
0
VERTEX
8
0
10
0.52299375
20
12.912409375000001
30
0
0
VERTEX
8
0
10
0.5226968750000001
20
12.921525
30
0
42
0.055546476035624494
0
VERTEX
8
0
10
0.515615625
20
12.94875
30
0
0
VERTEX
8
0
10
0.5142593750000001
20
12.951375
30
0
0
VERTEX
8
0
10
0.5148
20
12.952503125
30
0
0
VERTEX
8
0
10
0.5159718750000001
20
12.954040625000001
30
0
0
VERTEX
8
0
10
0.79195
20
13.432046875000001
30
0
0
VERTEX
8
0
10
1.256046875
20
13.699996875
30
0
0
VERTEX
8
0
10
1.7919500000000002
20
13.699996875
30
0
0
VERTEX
8
0
10
2.256046875
20
13.432046875000001
30
0
0
VERTEX
8
0
10
2.523996875
20
12.96795
30
0
0
VERTEX
8
0
10
2.523996875
20
12.432046875000001
30
0
0
VERTEX
8
0
10
2.256046875
20
11.96795
30
0
0
VERTEX
8
0
10
1.7919500000000002
20
11.700000000000001
30
0
0
SEQEND
0
POLYLINE
66
1
8
1_copper
10
0.0
20
0.0
30
0.0
70
1
0
VERTEX
8
0
10
0.900996875
20
7.807990625
30
0
0
VERTEX
8
0
10
0.901
20
8.237440625
30
0
0
VERTEX
8
0
10
0.9183093750000001
20
8.302040625
30
0
0
VERTEX
8
0
10
0.951746875
20
8.359953125
30
0
0
VERTEX
8
0
10
0.99904375
20
8.407250000000001
30
0
0
VERTEX
8
0
10
1.05695625
20
8.440687500000001
30
0
0
VERTEX
8
0
10
1.12155625
20
8.457996875000001
30
0
0
VERTEX
8
0
10
1.6510031250000001
20
8.457996875000001
30
0
0
VERTEX
8
0
10
1.6510031250000001
20
8.204
30
0
0
VERTEX
8
0
10
1.155
20
8.204
30
0
0
VERTEX
8
0
10
1.155
20
7.807990625
30
0
0
SEQEND
0
POLYLINE
66
1
8
1_copper
10
0.0
20
0.0
30
0.0
70
1
0
VERTEX
8
0
10
2.743784375
20
2.79
30
0
0
VERTEX
8
0
10
2.7446968750000003
20
2.79576875
30
0
0
VERTEX
8
0
10
2.797815625
20
2.9592593750000002
30
0
0
VERTEX
8
0
10
2.8758656250000003
20
3.1124343750000003
30
0
0
VERTEX
8
0
10
2.9769125
20
3.2515125
30
0
0
VERTEX
8
0
10
3.098484375
20
3.3730843750000004
30
0
0
VERTEX
8
0
10
3.2375625
20
3.47413125
30
0
0
VERTEX
8
0
10
3.3907375
20
3.5521812500000003
30
0
0
VERTEX
8
0
10
3.55423125
20
3.6053
30
0
0
VERTEX
8
0
10
3.5599937500000003
20
3.6062125000000003
30
0
0
VERTEX
8
0
10
3.5599937500000003
20
2.79
30
0
0
SEQEND
0
POLYLINE
66
1
8
1_copper
10
0.0
20
0.0
30
0.0
70
1
0
VERTEX
8
0
10
4.0600000000000005
20
2.79
30
0
0
VERTEX
8
0
10
4.0600000000000005
20
3.6062125000000003
30
0
0
VERTEX
8
0
10
4.065765625
20
3.6053
30
0
0
VERTEX
8
0
10
4.229259375
20
3.5521812500000003
30
0
0
VERTEX
8
0
10
4.382434375
20
3.47413125
30
0
0
VERTEX
8
0
10
4.5215125
20
3.3730843750000004
30
0
0
VERTEX
8
0
10
4.643084375
20
3.2515125
30
0
0
VERTEX
8
0
10
4.744131250000001
20
3.1124343750000003
30
0
0
VERTEX
8
0
10
4.82218125
20
2.9592593750000002
30
0
0
VERTEX
8
0
10
4.8753
20
2.795765625
30
0
0
VERTEX
8
0
10
4.8762125
20
2.79
30
0
0
SEQEND
0
POLYLINE
66
1
8
1_copper
10
0.0
20
0.0
30
0.0
70
1
0
VERTEX
8
0
10
3.5542281250000003
20
1.474696875
30
0
0
VERTEX
8
0
10
3.3907375
20
1.5278156250000001
30
0
0
VERTEX
8
0
10
3.2375625
20
1.605865625
30
0
0
VERTEX
8
0
10
3.098484375
20
1.7069125
30
0
0
VERTEX
8
0
10
2.9769125
20
1.8284843750000002
30
0
0
VERTEX
8
0
10
2.8758656250000003
20
1.9675625
30
0
0
VERTEX
8
0
10
2.797815625
20
2.1207375
30
0
0
VERTEX
8
0
10
2.7446968750000003
20
2.2842281250000003
30
0
0
VERTEX
8
0
10
2.743784375
20
2.2899937500000003
30
0
0
VERTEX
8
0
10
3.5599937500000003
20
2.2899937500000003
30
0
0
VERTEX
8
0
10
3.5599937500000003
20
1.4737843750000001
30
0
0
SEQEND
0
POLYLINE
66
1
8
1_copper
10
0.0
20
0.0
30
0.0
70
1
0
VERTEX
8
0
10
4.0600000000000005
20
2.2899937500000003
30
0
0
VERTEX
8
0
10
4.8762125
20
2.2899937500000003
30
0
0
VERTEX
8
0
10
4.8753
20
2.28423125
30
0
0
VERTEX
8
0
10
4.82218125
20
2.1207375
30
0
0
VERTEX
8
0
10
4.744131250000001
20
1.9675625
30
0
0
VERTEX
8
0
10
4.643084375
20
1.8284843750000002
30
0
0
VERTEX
8
0
10
4.5215125
20
1.7069125
30
0
0
VERTEX
8
0
10
4.382434375
20
1.605865625
30
0
0
VERTEX
8
0
10
4.229259375
20
1.5278156250000001
30
0
0
VERTEX
8
0
10
4.06576875
20
1.474696875
30
0
0
VERTEX
8
0
10
4.0600000000000005
20
1.4737843750000001
30
0
0
SEQEND
0
POLYLINE
66
1
8
16_copper
10
0.0
20
0.0
30
0.0
70
1
0
VERTEX
8
0
10
0.385309375
20
3.1769875
30
0
0
VERTEX
8
0
10
0.391815625
20
3.1768218750000004
30
0
42
0.12439612213672052
0
VERTEX
8
0
10
0.450265625
20
3.197709375
30
0
0
VERTEX
8
0
10
0.45772812500000004
20
3.2021593750000004
30
0
0
VERTEX
8
0
10
0.46506562500000004
20
3.20913125
30
0
0
VERTEX
8
0
10
0.4708
20
3.2135562500000003
30
0
0
VERTEX
8
0
10
0.680096875
20
3.42285625
30
0
0
VERTEX
8
0
10
1.06284375
20
3.5813968750000003
30
0
0
VERTEX
8
0
10
1.477146875
20
3.5813968750000003
30
0
0
VERTEX
8
0
10
1.65845
20
3.5062968750000003
30
0
0
VERTEX
8
0
10
1.66053125
20
3.5056937500000003
30
0
0
VERTEX
8
0
10
1.662478125
20
3.5047062500000004
30
0
42
0.22567327553474584
0
VERTEX
8
0
10
1.7711687500000002
20
3.5140000000000002
30
0
0
VERTEX
8
0
10
1.7774625000000002
20
3.5188562500000002
30
0
0
VERTEX
8
0
10
1.7905125000000002
20
3.5279031250000004
30
0
0
VERTEX
8
0
10
1.793746875
20
3.531425
30
0
0
VERTEX
8
0
10
1.79685625
20
3.533825
30
0
0
VERTEX
8
0
10
8.268603125
20
10.005575
30
0
0
VERTEX
8
0
10
8.272
20
10.009825000000001
30
0
0
VERTEX
8
0
10
8.275925
20
10.013553125
30
0
42
0.11143036570132879
0
VERTEX
8
0
10
8.301653125
20
10.06319375
30
0
0
VERTEX
8
0
10
8.302578125
20
10.0703625
30
0
0
VERTEX
8
0
10
8.30489375
20
10.080234375
30
0
0
VERTEX
8
0
10
8.30496875
20
10.088921875
30
0
0
VERTEX
8
0
10
8.3058
20
10.095378125
30
0
0
VERTEX
8
0
10
8.3058
20
10.398303125
30
0
0
VERTEX
8
0
10
8.305196875
20
10.403703125
30
0
0
VERTEX
8
0
10
8.3053375
20
10.409121875
30
0
42
0.11143579834837763
0
VERTEX
8
0
10
8.288428125000001
20
10.462418750000001
30
0
0
VERTEX
8
0
10
8.284009375
20
10.468143750000001
30
0
0
VERTEX
8
0
10
8.278671875
20
10.476756250000001
30
0
0
VERTEX
8
0
10
8.272584375000001
20
10.48295
30
0
0
VERTEX
8
0
10
8.268603125
20
10.488106250000001
30
0
0
VERTEX
8
0
10
8.079534375
20
10.677175
30
0
0
VERTEX
8
0
10
7.991334375
20
10.8901125
30
0
0
VERTEX
8
0
10
7.9881875
20
10.895821875000001
30
0
0
VERTEX
8
0
10
7.98575
20
10.901853125
30
0
42
0.5622347465241786
0
VERTEX
8
0
10
7.7695718750000005
20
10.912609375
30
0
0
VERTEX
8
0
10
7.764384375000001
20
10.905646875
30
0
0
VERTEX
8
0
10
7.7602625000000005
20
10.896375
30
0
0
VERTEX
8
0
10
7.75666875
20
10.8901125
30
0
0
VERTEX
8
0
10
7.668468750000001
20
10.67718125
30
0
0
VERTEX
8
0
10
7.483815625
20
10.492528125
30
0
0
VERTEX
8
0
10
7.242571875
20
10.3926
30
0
0
VERTEX
8
0
10
6.981425000000001
20
10.3926
30
0
0
VERTEX
8
0
10
6.74018125
20
10.492528125
30
0
0
VERTEX
8
0
10
6.555528125
20
10.67718125
30
0
0
VERTEX
8
0
10
6.4556000000000004
20
10.918425000000001
30
0
0
VERTEX
8
0
10
6.4556000000000004
20
10.99544375
30
0
42
0.5964189053953405
0
VERTEX
8
0
10
6.259331250000001
20
11.10109375
30
0
0
VERTEX
8
0
10
6.25186875
20
11.09664375
30
0
0
VERTEX
8
0
10
6.244528125
20
11.089668750000001
30
0
0
VERTEX
8
0
10
6.23879375
20
11.08524375
30
0
0
VERTEX
8
0
10
6.190928125
20
11.037375
30
0
0
VERTEX
8
0
10
6.1840906250000005
20
11.034543750000001
30
0
42
0.02105004160234635
0
VERTEX
8
0
10
6.174396875
20
11.030040625
30
0
0
VERTEX
8
0
10
6.168428125
20
11.0259125
30
0
0
VERTEX
8
0
10
6.159453125000001
20
11.02096875
30
0
0
VERTEX
8
0
10
6.1530125
20
11.01525625
30
0
0
VERTEX
8
0
10
6.147706250000001
20
11.011587500000001
30
0
0
VERTEX
8
0
10
6.08658125
20
10.956546875
30
0
0
VERTEX
8
0
10
5.670221875
20
10.82126875
30
0
0
VERTEX
8
0
10
5.665178125000001
20
10.818984375000001
30
0
0
VERTEX
8
0
10
5.6608625
20
10.817815625
30
0
0
VERTEX
8
0
10
5.470106250000001
20
10.738800000000001
30
0
0
VERTEX
8
0
10
5.4365250000000005
20
10.738800000000001
30
0
42
0.014489847717686242
0
VERTEX
8
0
10
5.4291687500000005
20
10.738587500000001
30
0
0
VERTEX
8
0
10
5.421259375
20
10.7371
30
0
0
VERTEX
8
0
10
5.408568750000001
20
10.735684375
30
0
0
VERTEX
8
0
10
5.40238125
20
10.73354375
30
0
0
VERTEX
8
0
10
5.397278125000001
20
10.732584375
30
0
0
VERTEX
8
0
10
5.290428125
20
10.697865625
30
0
0
VERTEX
8
0
10
4.907584375
20
10.738103125
30
0
0
VERTEX
8
0
10
4.90008125
20
10.73805625
30
0
0
VERTEX
8
0
10
4.894309375000001
20
10.738800000000001
30
0
0
VERTEX
8
0
10
4.68989375
20
10.738800000000001
30
0
0
VERTEX
8
0
10
4.635134375
20
10.761481250000001
30
0
42
0.007939576934011644
0
VERTEX
8
0
10
4.6313843750000006
20
10.762965625
30
0
0
VERTEX
8
0
10
4.62375
20
10.764775
30
0
0
VERTEX
8
0
10
4.6081125
20
10.769300000000001
30
0
0
VERTEX
8
0
10
4.60349375
20
10.769575
30
0
0
VERTEX
8
0
10
4.599809375
20
10.77045
30
0
0
VERTEX
8
0
10
4.457896875
20
10.785365625
30
0
0
VERTEX
8
0
10
4.161515625
20
10.956484375
30
0
0
VERTEX
8
0
10
4.152703125
20
10.96034375
30
0
0
VERTEX
8
0
10
4.146615625
20
10.963834375000001
30
0
0
VERTEX
8
0
10
3.9690687500000004
20
11.037375
30
0
0
VERTEX
8
0
10
3.9093906250000003
20
11.097053125
30
0
0
VERTEX
8
0
10
3.9091125
20
11.097275
30
0
0
VERTEX
8
0
10
3.9088875
20
11.097553125000001
30
0
0
VERTEX
8
0
10
3.9062187500000003
20
11.099590625000001
30
0
0
VERTEX
8
0
10
3.88741875
20
11.11461875
30
0
0
VERTEX
8
0
10
3.88493125
20
11.115828125
30
0
0
VERTEX
8
0
10
3.8830875000000002
20
11.117234375
30
0
0
VERTEX
8
0
10
3.732934375
20
11.203925
30
0
0
VERTEX
8
0
10
3.5539343750000003
20
11.4503
30
0
0
VERTEX
8
0
10
3.5458156250000004
20
11.459206250000001
30
0
0
VERTEX
8
0
10
3.540990625
20
11.46545625
30
0
0
VERTEX
8
0
10
3.4173781250000004
20
11.589068750000001
30
0
0
VERTEX
8
0
10
3.3757375
20
11.689596875000001
30
0
0
VERTEX
8
0
10
3.362159375
20
11.714234375
30
0
0
VERTEX
8
0
10
3.361534375
20
11.714940625
30
0
0
VERTEX
8
0
10
3.361146875
20
11.715646875000001
30
0
0
VERTEX
8
0
10
3.2408843750000003
20
11.881171875
30
0
0
VERTEX
8
0
10
3.184815625
20
12.1449625
30
0
0
VERTEX
8
0
10
3.180028125
20
12.159393750000001
30
0
0
VERTEX
8
0
10
3.177921875
20
12.1671625
30
0
0
VERTEX
8
0
10
3.1188000000000002
20
12.309890625000001
30
0
0
VERTEX
8
0
10
3.1188000000000002
20
12.442184375
30
0
0
VERTEX
8
0
10
3.11648125
20
12.462984375000001
30
0
0
VERTEX
8
0
10
3.116025
20
12.4685875
30
0
0
VERTEX
8
0
10
3.0668375
20
12.699996875
30
0
0
VERTEX
8
0
10
3.116025
20
12.93140625
30
0
0
VERTEX
8
0
10
3.1180875
20
12.95228125
30
0
0
VERTEX
8
0
10
3.1188000000000002
20
12.957812500000001
30
0
0
VERTEX
8
0
10
3.1188000000000002
20
13.09010625
30
0
0
VERTEX
8
0
10
3.177921875
20
13.232834375000001
30
0
0
VERTEX
8
0
10
3.1821468750000004
20
13.247434375000001
30
0
0
VERTEX
8
0
10
3.184815625
20
13.255034375000001
30
0
0
VERTEX
8
0
10
3.2408843750000003
20
13.518825000000001
30
0
0
VERTEX
8
0
10
3.361146875
20
13.68435
30
0
0
VERTEX
8
0
10
3.375059375
20
13.7088
30
0
0
VERTEX
8
0
10
3.3753312500000003
20
13.709690625
30
0
0
VERTEX
8
0
10
3.3757375
20
13.7104
30
0
0
VERTEX
8
0
10
3.4173781250000004
20
13.810928125
30
0
0
VERTEX
8
0
10
3.540990625
20
13.934540625
30
0
0
VERTEX
8
0
10
3.548525
20
13.943965625
30
0
0
VERTEX
8
0
10
3.5539343750000003
20
13.949696875
30
0
0
VERTEX
8
0
10
3.732934375
20
14.196071875000001
30
0
0
VERTEX
8
0
10
3.8830875000000002
20
14.2827625
30
0
0
VERTEX
8
0
10
3.8833718750000004
20
14.282971875000001
30
0
0
VERTEX
8
0
10
3.8837031250000003
20
14.28311875
30
0
0
VERTEX
8
0
10
3.8864187500000003
20
14.285215625000001
30
0
0
VERTEX
8
0
10
3.905740625
20
14.2994375
30
0
0
VERTEX
8
0
10
3.907546875
20
14.301521875
30
0
0
VERTEX
8
0
10
3.9093906250000003
20
14.30294375
30
0
0
VERTEX
8
0
10
3.9690687500000004
20
14.362621875
30
0
0
VERTEX
8
0
10
4.146615625
20
14.4361625
30
0
0
VERTEX
8
0
10
4.155065625
20
14.44081875
30
0
0
VERTEX
8
0
10
4.161515625
20
14.4435125
30
0
0
VERTEX
8
0
10
4.457896875
20
14.61463125
30
0
0
VERTEX
8
0
10
4.599809375
20
14.629546875
30
0
0
VERTEX
8
0
10
4.601784375
20
14.629978125000001
30
0
0
VERTEX
8
0
10
4.603815625
20
14.63003125
30
0
0
VERTEX
8
0
10
4.6113968750000005
20
14.632084375000002
30
0
0
VERTEX
8
0
10
4.6272875
20
14.635565625
30
0
0
VERTEX
8
0
10
4.631471875
20
14.637521875000001
30
0
0
VERTEX
8
0
10
4.635134375
20
14.638515625
30
0
0
VERTEX
8
0
10
4.68989375
20
14.661196875
30
0
0
VERTEX
8
0
10
4.894309375000001
20
14.661196875
30
0
0
VERTEX
8
0
10
4.901778125
20
14.662028125
30
0
0
VERTEX
8
0
10
4.907584375
20
14.66189375
30
0
0
VERTEX
8
0
10
5.290428125
20
14.70213125
30
0
0
VERTEX
8
0
10
5.397278125000001
20
14.667412500000001
30
0
0
VERTEX
8
0
10
5.400903125
20
14.666665625
30
0
0
VERTEX
8
0
10
5.404340625000001
20
14.66534375
30
0
0
VERTEX
8
0
10
5.412303125
20
14.664318750000001
30
0
0
VERTEX
8
0
10
5.42483125
20
14.661737500000001
30
0
0
VERTEX
8
0
10
5.431375
20
14.661859375
30
0
0
VERTEX
8
0
10
5.4365250000000005
20
14.661196875
30
0
0
VERTEX
8
0
10
5.4701125
20
14.661196875
30
0
0
VERTEX
8
0
10
5.660871875000001
20
14.582181250000001
30
0
0
VERTEX
8
0
10
5.66618125
20
14.58064375
30
0
0
VERTEX
8
0
10
5.670228125
20
14.578728125000001
30
0
0
VERTEX
8
0
10
6.086578125
20
14.44345
30
0
0
VERTEX
8
0
10
6.1477
20
14.388412500000001
30
0
0
VERTEX
8
0
10
6.1520625
20
14.385284375000001
30
0
0
VERTEX
8
0
10
6.1559375
20
14.381603125
30
0
0
VERTEX
8
0
10
6.1622312500000005
20
14.377990625
30
0
0
VERTEX
8
0
10
6.1705625
20
14.37201875
30
0
0
VERTEX
8
0
10
6.1784875
20
14.368668750000001
30
0
0
VERTEX
8
0
10
6.184084375
20
14.365456250000001
30
0
0
VERTEX
8
0
10
6.190928125
20
14.362621875
30
0
0
VERTEX
8
0
10
6.320421875
20
14.233128125
30
0
0
VERTEX
8
0
10
6.323278125
20
14.23084375
30
0
0
VERTEX
8
0
10
6.325246875
20
14.228553125000001
30
0
0
VERTEX
8
0
10
6.7086781250000005
20
13.8833125
30
0
0
VERTEX
8
0
10
6.7299500000000005
20
13.835528125000002
30
0
0
VERTEX
8
0
10
6.7335062500000005
20
13.829453125
30
0
0
VERTEX
8
0
10
6.736365625
20
13.823028125
30
0
0
VERTEX
8
0
10
6.739053125000001
20
13.819546875
30
0
0
VERTEX
8
0
10
6.764915625
20
13.7571125
30
0
0
VERTEX
8
0
10
6.7657875
20
13.75553125
30
0
0
VERTEX
8
0
10
6.7662281250000005
20
13.754056250000001
30
0
0
VERTEX
8
0
10
7.049168750000001
20
13.118562500000001
30
0
0
VERTEX
8
0
10
7.049168750000001
20
12.281437500000001
30
0
0
VERTEX
8
0
10
6.872240625000001
20
11.884053125000001
30
0
0
VERTEX
8
0
10
6.868784375000001
20
11.8731875
30
0
0
VERTEX
8
0
10
6.864871875
20
11.862471875
30
0
42
0.4092039226159622
0
VERTEX
8
0
10
6.956075
20
11.70954375
30
0
0
VERTEX
8
0
10
6.9585125
20
11.709228125000001
30
0
0
VERTEX
8
0
10
6.961281250000001
20
11.708296875
30
0
0
VERTEX
8
0
10
6.984034375
20
11.705940625
30
0
0
VERTEX
8
0
10
6.988259375
20
11.705396875
30
0
0
VERTEX
8
0
10
7.248818750000001
20
11.705396875
30
0
0
VERTEX
8
0
10
7.254218750000001
20
11.706000000000001
30
0
0
VERTEX
8
0
10
7.2596375
20
11.705859375000001
30
0
42
0.11143579834837763
0
VERTEX
8
0
10
7.312934375
20
11.72276875
30
0
0
VERTEX
8
0
10
7.318659375
20
11.727187500000001
30
0
0
VERTEX
8
0
10
7.327271875
20
11.732525
30
0
0
VERTEX
8
0
10
7.3334656250000005
20
11.7386125
30
0
0
VERTEX
8
0
10
7.338621875
20
11.742593750000001
30
0
0
VERTEX
8
0
10
7.991225
20
12.395196875
30
0
0
VERTEX
8
0
10
9.534771875
20
12.395196875
30
0
0
VERTEX
8
0
10
9.689196875
20
12.24076875
30
0
0
VERTEX
8
0
10
9.694290625
20
12.236696875
30
0
0
VERTEX
8
0
10
9.69885
20
12.232059375
30
0
42
0.5622133944225188
0
VERTEX
8
0
10
9.902684375
20
12.30484375
30
0
0
VERTEX
8
0
10
9.904815625000001
20
12.31326875
30
0
0
VERTEX
8
0
10
9.905075
20
12.323396875
30
0
0
VERTEX
8
0
10
9.906
20
12.330571875
30
0
0
VERTEX
8
0
10
9.906
20
12.700003125
30
0
0
VERTEX
8
0
10
9.9053875
20
12.7055
30
0
0
VERTEX
8
0
10
9.905609375000001
20
12.70996875
30
0
0
VERTEX
8
0
10
9.879028125
20
13.047706250000001
30
0
0
VERTEX
8
0
10
9.873728125000001
20
13.075331250000001
30
0
0
VERTEX
8
0
10
9.873353125000001
20
13.076190625
30
0
0
VERTEX
8
0
10
9.873203125
20
13.076987500000001
30
0
0
VERTEX
8
0
10
9.664465625
20
13.719409375000001
30
0
0
VERTEX
8
0
10
9.66294375
20
13.72276875
30
0
0
VERTEX
8
0
10
9.661990625
20
13.726337500000001
30
0
0
VERTEX
8
0
10
9.65813125
20
13.733396875
30
0
0
VERTEX
8
0
10
9.652862500000001
20
13.745034375000001
30
0
0
VERTEX
8
0
10
9.64891875
20
13.750256250000001
30
0
0
VERTEX
8
0
10
9.646428125
20
13.754809375
30
0
0
VERTEX
8
0
10
9.249390625
20
14.301290625
30
0
0
VERTEX
8
0
10
9.24689375
20
14.304028125
30
0
0
VERTEX
8
0
10
9.244890625
20
14.30711875
30
0
0
VERTEX
8
0
10
9.239059375
20
14.312621875000001
30
0
0
VERTEX
8
0
10
9.2304375
20
14.322078125
30
0
0
VERTEX
8
0
10
9.2250625
20
14.32583125
30
0
0
VERTEX
8
0
10
9.221290625
20
14.329390625
30
0
0
VERTEX
8
0
10
8.674809375
20
14.726428125
30
0
0
VERTEX
8
0
10
8.6716
20
14.728256250000001
30
0
0
VERTEX
8
0
10
8.668734375
20
14.730578125000001
30
0
0
VERTEX
8
0
10
8.66148125
20
14.7340125
30
0
0
VERTEX
8
0
10
8.6503625
20
14.740340625
30
0
0
VERTEX
8
0
10
8.644090625
20
14.74225
30
0
0
VERTEX
8
0
10
8.639409375
20
14.744465625
30
0
0
VERTEX
8
0
10
7.9969875
20
14.953203125
30
0
0
VERTEX
8
0
10
7.9694343750000005
20
14.958878125
30
0
0
VERTEX
8
0
10
7.968506250000001
20
14.958859375000001
30
0
0
VERTEX
8
0
10
7.96770625
20
14.959028125000001
30
0
0
VERTEX
8
0
10
7.6299656250000005
20
14.985609375000001
30
0
0
VERTEX
8
0
10
7.6244375
20
14.985431250000001
30
0
0
VERTEX
8
0
10
7.6200375000000005
20
14.985996875000001
30
0
0
VERTEX
8
0
10
7.620025
20
14.985996875000001
30
0
0
VERTEX
8
0
10
7.62
20
14.986
30
0
0
VERTEX
8
0
10
2.539996875
20
14.986
30
0
0
VERTEX
8
0
10
2.5399687500000003
20
14.985996875000001
30
0
0
VERTEX
8
0
10
2.53995625
20
14.985996875000001
30
0
0
VERTEX
8
0
10
2.534490625
20
14.9853875
30
0
0
VERTEX
8
0
10
2.53003125
20
14.985609375000001
30
0
0
VERTEX
8
0
10
2.192290625
20
14.959028125000001
30
0
0
VERTEX
8
0
10
2.164665625
20
14.953728125000001
30
0
0
VERTEX
8
0
10
2.16380625
20
14.953353125000001
30
0
0
VERTEX
8
0
10
2.163009375
20
14.953203125
30
0
0
VERTEX
8
0
10
1.5205875
20
14.744465625
30
0
0
VERTEX
8
0
10
1.5172281250000001
20
14.74294375
30
0
0
VERTEX
8
0
10
1.513659375
20
14.741990625000001
30
0
0
VERTEX
8
0
10
1.5066000000000002
20
14.73813125
30
0
0
VERTEX
8
0
10
1.4949625
20
14.732862500000001
30
0
0
VERTEX
8
0
10
1.489740625
20
14.72891875
30
0
0
VERTEX
8
0
10
1.4851875
20
14.726428125
30
0
0
VERTEX
8
0
10
0.9387062500000001
20
14.329390625
30
0
0
VERTEX
8
0
10
0.935978125
20
14.326903125000001
30
0
0
VERTEX
8
0
10
0.932878125
20
14.324893750000001
30
0
0
VERTEX
8
0
10
0.927353125
20
14.319040625000001
30
0
0
VERTEX
8
0
10
0.91791875
20
14.3104375
30
0
0
VERTEX
8
0
10
0.9148625
20
14.306062500000001
30
0
0
VERTEX
8
0
10
0.912915625
20
14.304146875
30
0
0
VERTEX
8
0
10
0.91209375
20
14.30286875
30
0
0
VERTEX
8
0
10
0.9106062500000001
20
14.301293750000001
30
0
0
VERTEX
8
0
10
0.51356875
20
13.754815625
30
0
0
VERTEX
8
0
10
0.5117375000000001
20
13.751596875
30
0
0
VERTEX
8
0
10
0.50941875
20
13.7487375
30
0
0
VERTEX
8
0
10
0.5059781250000001
20
13.741475000000001
30
0
0
VERTEX
8
0
10
0.499659375
20
13.730365625000001
30
0
0
VERTEX
8
0
10
0.49775625
20
13.724109375000001
30
0
0
VERTEX
8
0
10
0.49553125000000003
20
13.7194125
30
0
0
VERTEX
8
0
10
0.28679375
20
13.076990625
30
0
0
VERTEX
8
0
10
0.28111875000000003
20
13.0494375
30
0
0
VERTEX
8
0
10
0.28113750000000004
20
13.048509375
30
0
0
VERTEX
8
0
10
0.28096875
20
13.047709375
30
0
0
VERTEX
8
0
10
0.2543875
20
12.709965625
30
0
0
VERTEX
8
0
10
0.254515625
20
12.706046875
30
0
0
VERTEX
8
0
10
0.254015625
20
12.702171875000001
30
0
0
VERTEX
8
0
10
0.254125
20
12.701
30
0
0
VERTEX
8
0
10
0.253996875
20
12.700000000000001
30
0
0
VERTEX
8
0
10
0.253996875
20
3.3033593750000003
30
0
0
VERTEX
8
0
10
0.25471875
20
3.2968875
30
0
0
VERTEX
8
0
10
0.2546625
20
3.290375
30
0
42
0.37961759474582774
0
VERTEX
8
0
10
0.37882187500000003
20
3.1763781250000003
30
0
0
SEQEND
0
POLYLINE
66
1
8
16_copper
10
0.0
20
0.0
30
0.0
70
1
0
VERTEX
8
0
10
9.791946875
20
0.25544062500000003
30
0
0
VERTEX
8
0
10
9.804831250000001
20
0.25665312500000004
30
0
42
0.28478264770884804
0
VERTEX
8
0
10
9.901853125
20
0.3488125
30
0
0
VERTEX
8
0
10
9.90198125
20
0.34980937500000003
30
0
0
VERTEX
8
0
10
9.9023875
20
0.350921875
30
0
0
VERTEX
8
0
10
9.90598125
20
0.37882187500000003
30
0
0
VERTEX
8
0
10
9.905871875
20
0.37999375
30
0
0
VERTEX
8
0
10
9.906
20
0.380996875
30
0
0
VERTEX
8
0
10
9.906
20
1.7766375
30
0
0
VERTEX
8
0
10
9.905278125
20
1.783109375
30
0
0
VERTEX
8
0
10
9.905334375
20
1.7896218750000001
30
0
42
0.5622211703077746
0
VERTEX
8
0
10
9.70973125
20
1.8822875000000001
30
0
0
VERTEX
8
0
10
9.70226875
20
1.8778375
30
0
0
VERTEX
8
0
10
9.69493125
20
1.8708656250000002
30
0
0
VERTEX
8
0
10
9.689196875
20
1.866440625
30
0
0
VERTEX
8
0
10
9.4799
20
1.657140625
30
0
0
VERTEX
8
0
10
9.097153125
20
1.4986000000000002
30
0
0
VERTEX
8
0
10
8.68284375
20
1.4986000000000002
30
0
0
VERTEX
8
0
10
8.300096875000001
20
1.657140625
30
0
0
VERTEX
8
0
10
8.007140625
20
1.950096875
30
0
0
VERTEX
8
0
10
7.8486
20
2.3328437500000003
30
0
0
VERTEX
8
0
10
7.8486
20
2.747153125
30
0
0
VERTEX
8
0
10
8.007140625
20
3.1299
30
0
0
VERTEX
8
0
10
8.300096875000001
20
3.42285625
30
0
0
VERTEX
8
0
10
8.68284375
20
3.5813968750000003
30
0
0
VERTEX
8
0
10
9.09714375
20
3.5813968750000003
30
0
0
VERTEX
8
0
10
9.09885
20
3.5806906250000003
30
0
42
0.20829772005929162
0
VERTEX
8
0
10
9.21156875
20
3.5884
30
0
0
VERTEX
8
0
10
9.217821875
20
3.593228125
30
0
0
VERTEX
8
0
10
9.2309125
20
3.6023
30
0
0
VERTEX
8
0
10
9.234153125
20
3.60583125
30
0
0
VERTEX
8
0
10
9.23725625
20
3.608225
30
0
0
VERTEX
8
0
10
9.284606250000001
20
3.6555781250000003
30
0
42
0.13306380389805408
0
VERTEX
8
0
10
9.317653125
20
3.7131937500000003
30
0
0
VERTEX
8
0
10
9.318575000000001
20
3.720359375
30
0
0
VERTEX
8
0
10
9.32089375
20
3.7302375000000003
30
0
0
VERTEX
8
0
10
9.32096875
20
3.7389218750000004
30
0
0
VERTEX
8
0
10
9.3218
20
3.7453781250000002
30
0
0
VERTEX
8
0
10
9.3218
20
10.499909375
30
0
0
VERTEX
8
0
10
9.321078125
20
10.50638125
30
0
0
VERTEX
8
0
10
9.321134375
20
10.51289375
30
0
42
0.5622099016406942
0
VERTEX
8
0
10
9.125534375
20
10.605562500000001
30
0
0
VERTEX
8
0
10
9.11806875
20
10.601109375
30
0
0
VERTEX
8
0
10
9.110715625000001
20
10.594125
30
0
0
VERTEX
8
0
10
9.104996875000001
20
10.589709375
30
0
0
VERTEX
8
0
10
9.00339375
20
10.488103125
30
0
0
VERTEX
8
0
10
9.00000625
20
10.483865625
30
0
0
VERTEX
8
0
10
8.996071875
20
10.480128125
30
0
42
0.11143036570132879
0
VERTEX
8
0
10
8.97034375
20
10.4304875
30
0
0
VERTEX
8
0
10
8.96941875
20
10.423315625
30
0
0
VERTEX
8
0
10
8.967103125000001
20
10.413446875
30
0
0
VERTEX
8
0
10
8.967028125
20
10.404759375000001
30
0
0
VERTEX
8
0
10
8.966196875
20
10.398303125
30
0
0
VERTEX
8
0
10
8.966196875
20
9.769225
30
0
0
VERTEX
8
0
10
8.735575
20
9.538603125
30
0
0
VERTEX
8
0
10
2.263825
20
3.0668562500000003
30
0
0
VERTEX
8
0
10
2.26246875
20
3.0651593750000004
30
0
0
VERTEX
8
0
10
2.260815625
20
3.06374375
30
0
42
0.22566864510614817
0
VERTEX
8
0
10
2.227809375
20
2.959771875
30
0
0
VERTEX
8
0
10
2.22988125
20
2.952125
30
0
0
VERTEX
8
0
10
2.23325
20
2.936578125
30
0
0
VERTEX
8
0
10
2.235271875
20
2.932228125
30
0
0
VERTEX
8
0
10
2.2362968750000003
20
2.92845
30
0
0
VERTEX
8
0
10
2.3113968750000002
20
2.7471468750000003
30
0
0
VERTEX
8
0
10
2.3113968750000002
20
2.3328437500000003
30
0
0
VERTEX
8
0
10
2.15285625
20
1.950096875
30
0
0
VERTEX
8
0
10
1.8599
20
1.657140625
30
0
0
VERTEX
8
0
10
1.477153125
20
1.4986000000000002
30
0
0
VERTEX
8
0
10
1.06284375
20
1.4986000000000002
30
0
0
VERTEX
8
0
10
0.680096875
20
1.657140625
30
0
0
VERTEX
8
0
10
0.4708
20
1.866440625
30
0
0
VERTEX
8
0
10
0.46570625000000004
20
1.8705125
30
0
0
VERTEX
8
0
10
0.461146875
20
1.87515
30
0
42
0.5621974582242439
0
VERTEX
8
0
10
0.2573125
20
1.8023718750000002
30
0
0
VERTEX
8
0
10
0.25518125
20
1.793940625
30
0
0
VERTEX
8
0
10
0.254921875
20
1.7838125
30
0
0
VERTEX
8
0
10
0.253996875
20
1.7766375
30
0
0
VERTEX
8
0
10
0.253996875
20
0.380996875
30
0
0
VERTEX
8
0
10
0.25544062500000003
20
0.36805000000000004
30
0
0
VERTEX
8
0
10
0.25665312500000004
20
0.35516562500000004
30
0
42
0.28478264770884804
0
VERTEX
8
0
10
0.3488125
20
0.25814375
30
0
0
VERTEX
8
0
10
0.34980937500000003
20
0.258015625
30
0
0
VERTEX
8
0
10
0.350921875
20
0.25760937500000003
30
0
0
VERTEX
8
0
10
0.37882187500000003
20
0.254015625
30
0
0
VERTEX
8
0
10
0.37999375
20
0.254125
30
0
0
VERTEX
8
0
10
0.380996875
20
0.253996875
30
0
0
VERTEX
8
0
10
9.779
20
0.253996875
30
0
0
SEQEND
0
POLYLINE
66
1
8
16_copper
10
0.0
20
0.0
30
0.0
70
1
0
VERTEX
8
0
10
2.743784375
20
2.79
30
0
0
VERTEX
8
0
10
2.7446968750000003
20
2.79576875
30
0
0
VERTEX
8
0
10
2.797815625
20
2.9592593750000002
30
0
0
VERTEX
8
0
10
2.8758656250000003
20
3.1124343750000003
30
0
0
VERTEX
8
0
10
2.9769125
20
3.2515125
30
0
0
VERTEX
8
0
10
3.098484375
20
3.3730843750000004
30
0
0
VERTEX
8
0
10
3.2375625
20
3.47413125
30
0
0
VERTEX
8
0
10
3.3907375
20
3.5521812500000003
30
0
0
VERTEX
8
0
10
3.55423125
20
3.6053
30
0
0
VERTEX
8
0
10
3.5599937500000003
20
3.6062125000000003
30
0
0
VERTEX
8
0
10
3.5599937500000003
20
2.79
30
0
0
SEQEND
0
POLYLINE
66
1
8
16_copper
10
0.0
20
0.0
30
0.0
70
1
0
VERTEX
8
0
10
4.0600000000000005
20
2.79
30
0
0
VERTEX
8
0
10
4.0600000000000005
20
3.6062125000000003
30
0
0
VERTEX
8
0
10
4.065765625
20
3.6053
30
0
0
VERTEX
8
0
10
4.229259375
20
3.5521812500000003
30
0
0
VERTEX
8
0
10
4.382434375
20
3.47413125
30
0
0
VERTEX
8
0
10
4.5215125
20
3.3730843750000004
30
0
0
VERTEX
8
0
10
4.643084375
20
3.2515125
30
0
0
VERTEX
8
0
10
4.744131250000001
20
3.1124343750000003
30
0
0
VERTEX
8
0
10
4.82218125
20
2.9592593750000002
30
0
0
VERTEX
8
0
10
4.8753
20
2.795765625
30
0
0
VERTEX
8
0
10
4.8762125
20
2.79
30
0
0
SEQEND
0
POLYLINE
66
1
8
16_copper
10
0.0
20
0.0
30
0.0
70
1
0
VERTEX
8
0
10
6.14284375
20
1.4986000000000002
30
0
0
VERTEX
8
0
10
5.760096875
20
1.657140625
30
0
0
VERTEX
8
0
10
5.467140625
20
1.950096875
30
0
0
VERTEX
8
0
10
5.3086
20
2.3328437500000003
30
0
0
VERTEX
8
0
10
5.3086
20
2.747153125
30
0
0
VERTEX
8
0
10
5.467140625
20
3.1299
30
0
0
VERTEX
8
0
10
5.760096875
20
3.42285625
30
0
0
VERTEX
8
0
10
6.14284375
20
3.5813968750000003
30
0
0
VERTEX
8
0
10
6.557153125
20
3.5813968750000003
30
0
0
VERTEX
8
0
10
6.939900000000001
20
3.42285625
30
0
0
VERTEX
8
0
10
7.23285625
20
3.1299
30
0
0
VERTEX
8
0
10
7.391396875000001
20
2.747153125
30
0
0
VERTEX
8
0
10
7.391396875000001
20
2.3328437500000003
30
0
0
VERTEX
8
0
10
7.23285625
20
1.950096875
30
0
0
VERTEX
8
0
10
6.939900000000001
20
1.657140625
30
0
0
VERTEX
8
0
10
6.557153125
20
1.4986000000000002
30
0
0
SEQEND
0
POLYLINE
66
1
8
16_copper
10
0.0
20
0.0
30
0.0
70
1
0
VERTEX
8
0
10
4.0600000000000005
20
2.2899937500000003
30
0
0
VERTEX
8
0
10
4.8762125
20
2.2899937500000003
30
0
0
VERTEX
8
0
10
4.8753
20
2.28423125
30
0
0
VERTEX
8
0
10
4.82218125
20
2.1207375
30
0
0
VERTEX
8
0
10
4.744131250000001
20
1.9675625
30
0
0
VERTEX
8
0
10
4.643084375
20
1.8284843750000002
30
0
0
VERTEX
8
0
10
4.5215125
20
1.7069125
30
0
0
VERTEX
8
0
10
4.382434375
20
1.605865625
30
0
0
VERTEX
8
0
10
4.229259375
20
1.5278156250000001
30
0
0
VERTEX
8
0
10
4.06576875
20
1.474696875
30
0
0
VERTEX
8
0
10
4.0600000000000005
20
1.4737843750000001
30
0
0
SEQEND
0
POLYLINE
66
1
8
16_copper
10
0.0
20
0.0
30
0.0
70
1
0
VERTEX
8
0
10
3.5542281250000003
20
1.474696875
30
0
0
VERTEX
8
0
10
3.3907375
20
1.5278156250000001
30
0
0
VERTEX
8
0
10
3.2375625
20
1.605865625
30
0
0
VERTEX
8
0
10
3.098484375
20
1.7069125
30
0
0
VERTEX
8
0
10
2.9769125
20
1.8284843750000002
30
0
0
VERTEX
8
0
10
2.8758656250000003
20
1.9675625
30
0
0
VERTEX
8
0
10
2.797815625
20
2.1207375
30
0
0
VERTEX
8
0
10
2.7446968750000003
20
2.2842281250000003
30
0
0
VERTEX
8
0
10
2.743784375
20
2.2899937500000003
30
0
0
VERTEX
8
0
10
3.5599937500000003
20
2.2899937500000003
30
0
0
VERTEX
8
0
10
3.5599937500000003
20
1.4737843750000001
30
0
0
SEQEND
0
POLYLINE
66
1
8
1_copper
10
0.0
20
0.0
30
0.0
70
1
0
VERTEX
8
0
10
9.347000000000001
20
10.275
30
0
0
VERTEX
8
0
10
8.763
20
10.275
30
0
0
VERTEX
8
0
10
8.763
20
10.613843750000001
30
0
0
VERTEX
8
0
10
8.7819875
20
10.618931250000001
30
0
42
0.9999999999999999
0
VERTEX
8
0
10
8.4900125
20
11.47906875
30
0
0
VERTEX
8
0
10
8.435125000000001
20
11.456334375
30
0
42
0.6681795790466499
0
VERTEX
8
0
10
8.4900125
20
10.618931250000001
30
0
0
VERTEX
8
0
10
8.509
20
10.613843750000001
30
0
0
VERTEX
8
0
10
8.509
20
10.275
30
0
0
VERTEX
8
0
10
8.047
20
10.275
30
0
0
VERTEX
8
0
10
8.047
20
8.775
30
0
0
VERTEX
8
0
10
9.347000000000001
20
8.775
30
0
0
SEQEND
0
POLYLINE
66
1
8
1_copper
10
0.0
20
0.0
30
0.0
70
1
0
VERTEX
8
0
10
1.307090625
20
2.3402125000000003
30
0
42
0.3614164396978822
0
VERTEX
8
0
10
1.4732
20
2.54
30
0
0
VERTEX
8
0
10
1.4732
20
4.93483125
30
0
0
VERTEX
8
0
10
1.54236875
20
5.0040000000000004
30
0
0
VERTEX
8
0
10
2.6550000000000002
20
5.0040000000000004
30
0
0
VERTEX
8
0
10
2.6550000000000002
20
5.79663125
30
0
0
VERTEX
8
0
10
3.18736875
20
6.329000000000001
30
0
0
VERTEX
8
0
10
4.38
20
6.329000000000001
30
0
0
VERTEX
8
0
10
4.38
20
6.8790000000000004
30
0
0
VERTEX
8
0
10
3.18
20
6.8790000000000004
30
0
0
VERTEX
8
0
10
3.18
20
6.8072
30
0
0
VERTEX
8
0
10
3.1750000000000003
20
6.8072
30
0
42
0.15784365509412057
0
VERTEX
8
0
10
3.055909375
20
6.768643750000001
30
0
0
VERTEX
8
0
10
3.04954375
20
6.76321875
30
0
42
0.018023900800285427
0
VERTEX
8
0
10
3.038425
20
6.75374375
30
0
0
VERTEX
8
0
10
3.031315625
20
6.747684375
30
0
0
VERTEX
8
0
10
2.5876312500000003
20
6.304
30
0
0
VERTEX
8
0
10
1.155
20
6.304
30
0
0
VERTEX
8
0
10
1.155
20
5.1913687500000005
30
0
0
VERTEX
8
0
10
1.1263156250000002
20
5.162684375
30
0
42
0.1578457329177564
0
VERTEX
8
0
10
1.06936875
20
5.051209375
30
0
0
VERTEX
8
0
10
1.06870625
20
5.042884375
30
0
42
0.01805948283611007
0
VERTEX
8
0
10
1.0675406250000001
20
5.0282937500000005
30
0
0
VERTEX
8
0
10
1.0668
20
5.019
30
0
0
VERTEX
8
0
10
1.0668
20
2.54
30
0
0
VERTEX
8
0
10
1.06991875
20
2.504534375
30
0
42
0.36601546292936904
0
VERTEX
8
0
10
1.2716500000000002
20
2.33680625
30
0
0
SEQEND
0
POLYLINE
66
1
8
16_copper
10
0.0
20
0.0
30
0.0
70
1
0
VERTEX
8
0
10
1.308409375
20
2.418946875
30
0
0
VERTEX
8
0
10
1.3341156250000001
20
2.430371875
30
0
0
VERTEX
8
0
10
1.359803125
20
2.450196875
30
0
0
VERTEX
8
0
10
8.725803125
20
9.816196875000001
30
0
0
VERTEX
8
0
10
8.7292
20
9.820446875
30
0
0
VERTEX
8
0
10
8.733125000000001
20
9.824175
30
0
42
0.11143036570132879
0
VERTEX
8
0
10
8.758853125
20
9.873815625
30
0
0
VERTEX
8
0
10
8.759775000000001
20
9.88098125
30
0
0
VERTEX
8
0
10
8.76209375
20
9.890853125000001
30
0
0
VERTEX
8
0
10
8.76216875
20
9.899543750000001
30
0
0
VERTEX
8
0
10
8.763
20
9.906
30
0
0
VERTEX
8
0
10
8.763
20
10.613843750000001
30
0
0
VERTEX
8
0
10
8.7819875
20
10.618931250000001
30
0
42
0.9999999999999999
0
VERTEX
8
0
10
8.4900125
20
11.47906875
30
0
0
VERTEX
8
0
10
8.435125000000001
20
11.456334375
30
0
42
0.6681795790466499
0
VERTEX
8
0
10
8.4900125
20
10.618931250000001
30
0
0
VERTEX
8
0
10
8.509
20
10.613843750000001
30
0
0
VERTEX
8
0
10
8.509
20
9.95860625
30
0
0
VERTEX
8
0
10
1.180196875
20
2.629803125
30
0
0
VERTEX
8
0
10
1.16263125
20
2.6078312500000003
30
0
42
0.6198442081517801
0
VERTEX
8
0
10
1.2808187500000001
20
2.4134625
30
0
0
SEQEND
0
POLYLINE
66
1
8
1_copper
10
0.0
20
0.0
30
0.0
70
1
0
VERTEX
8
0
10
4.38
20
5.4508
30
0
0
VERTEX
8
0
10
4.638
20
5.4508
30
0
0
VERTEX
8
0
10
4.6481031250000004
20
5.4516875
30
0
0
VERTEX
8
0
10
4.658265625
20
5.4518125
30
0
42
0.13234210275356545
0
VERTEX
8
0
10
4.757090625
20
5.48935625
30
0
0
VERTEX
8
0
10
4.76345625
20
5.49478125
30
0
42
0.018023900800285427
0
VERTEX
8
0
10
4.7745750000000005
20
5.50425625
30
0
0
VERTEX
8
0
10
4.781684375
20
5.5103156250000005
30
0
0
VERTEX
8
0
10
5.096684375000001
20
5.825315625
30
0
0
VERTEX
8
0
10
5.103215625
20
5.83310625
30
0
0
VERTEX
8
0
10
5.110296875
20
5.8403625
30
0
42
0.13234447677005623
0
VERTEX
8
0
10
5.15363125
20
5.936790625
30
0
0
VERTEX
8
0
10
5.15429375
20
5.945115625000001
30
0
42
0.01805948283611007
0
VERTEX
8
0
10
5.155459375
20
5.95970625
30
0
0
VERTEX
8
0
10
5.1562
20
5.969
30
0
0
VERTEX
8
0
10
5.1562
20
8.775
30
0
0
VERTEX
8
0
10
5.41
20
8.775
30
0
0
VERTEX
8
0
10
5.41
20
10.275
30
0
0
VERTEX
8
0
10
4.11
20
10.275
30
0
0
VERTEX
8
0
10
4.11
20
8.775
30
0
0
VERTEX
8
0
10
4.7498000000000005
20
8.775
30
0
0
VERTEX
8
0
10
4.7498000000000005
20
6.05316875
30
0
0
VERTEX
8
0
10
4.55383125
20
5.857200000000001
30
0
0
VERTEX
8
0
10
4.38
20
5.857200000000001
30
0
0
VERTEX
8
0
10
4.38
20
5.929
30
0
0
VERTEX
8
0
10
3.18
20
5.929
30
0
0
VERTEX
8
0
10
3.18
20
5.3790000000000004
30
0
0
VERTEX
8
0
10
4.38
20
5.3790000000000004
30
0
0
SEQEND
0
POLYLINE
66
1
8
1_copper
10
0.0
20
0.0
30
0.0
70
1
0
VERTEX
8
0
10
4.38
20
7.829000000000001
30
0
0
VERTEX
8
0
10
3.9832
20
7.829000000000001
30
0
0
VERTEX
8
0
10
3.9832
20
7.904000000000001
30
0
42
0.15784365509412057
0
VERTEX
8
0
10
3.94464375
20
8.023090625
30
0
0
VERTEX
8
0
10
3.93921875
20
8.02945625
30
0
42
0.018023900800285427
0
VERTEX
8
0
10
3.92974375
20
8.040575
30
0
0
VERTEX
8
0
10
3.923684375
20
8.047684375000001
30
0
0
VERTEX
8
0
10
3.19636875
20
8.775
30
0
0
VERTEX
8
0
10
3.5100000000000002
20
8.775
30
0
0
VERTEX
8
0
10
3.5100000000000002
20
10.275
30
0
0
VERTEX
8
0
10
2.21
20
10.275
30
0
0
VERTEX
8
0
10
2.21
20
8.775
30
0
0
VERTEX
8
0
10
2.6632687500000003
20
8.775
30
0
0
VERTEX
8
0
10
2.664453125
20
8.768756250000001
30
0
42
0.08794427479355463
0
VERTEX
8
0
10
2.69535625
20
8.704909375
30
0
0
VERTEX
8
0
10
2.70078125
20
8.69854375
30
0
42
0.018023900800285427
0
VERTEX
8
0
10
2.71025625
20
8.687425000000001
30
0
0
VERTEX
8
0
10
2.716315625
20
8.680315625
30
0
0
VERTEX
8
0
10
3.5676312500000003
20
7.829000000000001
30
0
0
VERTEX
8
0
10
3.18
20
7.829000000000001
30
0
0
VERTEX
8
0
10
3.18
20
7.279
30
0
0
VERTEX
8
0
10
4.38
20
7.279
30
0
0
SEQEND
0
POLYLINE
66
1
8
1_copper
10
0.0
20
0.0
30
0.0
70
1
0
VERTEX
8
0
10
6.387090625
20
2.3402125000000003
30
0
42
0.3614164396978822
0
VERTEX
8
0
10
6.5532
20
2.54
30
0
0
VERTEX
8
0
10
6.5532
20
5.3790000000000004
30
0
0
VERTEX
8
0
10
6.98
20
5.3790000000000004
30
0
0
VERTEX
8
0
10
6.98
20
5.4508
30
0
0
VERTEX
8
0
10
7.886
20
5.4508
30
0
0
VERTEX
8
0
10
7.886
20
5.0040000000000004
30
0
0
VERTEX
8
0
10
9.386000000000001
20
5.0040000000000004
30
0
0
VERTEX
8
0
10
9.386000000000001
20
6.304
30
0
0
VERTEX
8
0
10
7.886
20
6.304
30
0
0
VERTEX
8
0
10
7.886
20
5.857200000000001
30
0
0
VERTEX
8
0
10
6.98
20
5.857200000000001
30
0
0
VERTEX
8
0
10
6.98
20
5.929
30
0
0
VERTEX
8
0
10
5.78
20
5.929
30
0
0
VERTEX
8
0
10
5.78
20
5.3790000000000004
30
0
0
VERTEX
8
0
10
6.146800000000001
20
5.3790000000000004
30
0
0
VERTEX
8
0
10
6.146800000000001
20
2.54
30
0
0
VERTEX
8
0
10
6.14991875
20
2.504534375
30
0
42
0.36601546292936904
0
VERTEX
8
0
10
6.35165
20
2.33680625
30
0
0
SEQEND
0
POLYLINE
66
1
8
1_copper
10
0.0
20
0.0
30
0.0
70
1
0
VERTEX
8
0
10
6.98
20
7.829000000000001
30
0
0
VERTEX
8
0
10
6.507000000000001
20
7.829000000000001
30
0
0
VERTEX
8
0
10
6.507000000000001
20
8.775
30
0
0
VERTEX
8
0
10
7.447
20
8.775
30
0
0
VERTEX
8
0
10
7.447
20
10.275
30
0
0
VERTEX
8
0
10
6.924
20
10.275
30
0
0
VERTEX
8
0
10
6.924
20
10.636331250000001
30
0
0
VERTEX
8
0
10
6.966012500000001
20
10.618931250000001
30
0
42
0.9999999999999999
0
VERTEX
8
0
10
7.2579875000000005
20
11.47906875
30
0
0
VERTEX
8
0
10
7.200603125000001
20
11.494446875000001
30
0
42
0.5773481846304265
0
VERTEX
8
0
10
6.68193125
20
10.9030125
30
0
0
VERTEX
8
0
10
6.7046656250000005
20
10.848125000000001
30
0
0
VERTEX
8
0
10
6.71449375
20
10.831100000000001
30
0
0
VERTEX
8
0
10
6.707196875
20
10.823803125000001
30
0
42
0.13307265752885775
0
VERTEX
8
0
10
6.674146875
20
10.766184375
30
0
0
VERTEX
8
0
10
6.673225
20
10.759018750000001
30
0
0
VERTEX
8
0
10
6.670906250000001
20
10.749146875000001
30
0
0
VERTEX
8
0
10
6.67083125
20
10.740456250000001
30
0
0
VERTEX
8
0
10
6.67
20
10.734
30
0
0
VERTEX
8
0
10
6.67
20
10.275
30
0
0
VERTEX
8
0
10
6.147
20
10.275
30
0
0
VERTEX
8
0
10
6.147
20
8.775
30
0
0
VERTEX
8
0
10
6.253
20
8.775
30
0
0
VERTEX
8
0
10
6.253
20
7.829000000000001
30
0
0
VERTEX
8
0
10
5.78
20
7.829000000000001
30
0
0
VERTEX
8
0
10
5.78
20
7.279
30
0
0
VERTEX
8
0
10
6.98
20
7.279
30
0
0
SEQEND
0
POLYLINE
66
1
8
16_copper
10
0.0
20
0.0
30
0.0
70
1
0
VERTEX
8
0
10
8.91583125
20
2.41565625
30
0
42
0.28478264770884804
0
VERTEX
8
0
10
9.012853125000001
20
2.507815625
30
0
0
VERTEX
8
0
10
9.017000000000001
20
2.54
30
0
0
VERTEX
8
0
10
9.017000000000001
20
2.7413937500000003
30
0
0
VERTEX
8
0
10
9.741803125
20
3.466196875
30
0
0
VERTEX
8
0
10
9.7452
20
3.4704468750000004
30
0
0
VERTEX
8
0
10
9.749125000000001
20
3.4741750000000002
30
0
42
0.11143036570132879
0
VERTEX
8
0
10
9.774853125
20
3.523815625
30
0
0
VERTEX
8
0
10
9.775775000000001
20
3.53098125
30
0
0
VERTEX
8
0
10
9.77809375
20
3.5408531250000004
30
0
0
VERTEX
8
0
10
9.77816875
20
3.54954375
30
0
0
VERTEX
8
0
10
9.779
20
3.556
30
0
0
VERTEX
8
0
10
9.779
20
11.811
30
0
0
VERTEX
8
0
10
9.778396875
20
11.8164
30
0
0
VERTEX
8
0
10
9.7785375
20
11.82181875
30
0
42
0.11143579834837763
0
VERTEX
8
0
10
9.761628125
20
11.875115625000001
30
0
0
VERTEX
8
0
10
9.757209375
20
11.880840625000001
30
0
0
VERTEX
8
0
10
9.751871875
20
11.889453125000001
30
0
0
VERTEX
8
0
10
9.745784375000001
20
11.895646875
30
0
0
VERTEX
8
0
10
9.741803125
20
11.900803125000001
30
0
0
VERTEX
8
0
10
9.487803125000001
20
12.154803125
30
0
0
VERTEX
8
0
10
9.483553125
20
12.1582
30
0
0
VERTEX
8
0
10
9.479825
20
12.162125000000001
30
0
42
0.11143036570132879
0
VERTEX
8
0
10
9.430184375
20
12.187853125
30
0
0
VERTEX
8
0
10
9.42301875
20
12.188775000000001
30
0
0
VERTEX
8
0
10
9.413146875
20
12.19109375
30
0
0
VERTEX
8
0
10
9.40445625
20
12.191168750000001
30
0
0
VERTEX
8
0
10
9.398
20
12.192
30
0
0
VERTEX
8
0
10
8.128
20
12.192
30
0
0
VERTEX
8
0
10
8.1226
20
12.191396875
30
0
0
VERTEX
8
0
10
8.11718125
20
12.1915375
30
0
42
0.11143579834837763
0
VERTEX
8
0
10
8.063884375
20
12.174628125
30
0
0
VERTEX
8
0
10
8.058159375
20
12.170209375
30
0
0
VERTEX
8
0
10
8.049546875
20
12.164871875000001
30
0
0
VERTEX
8
0
10
8.043353125000001
20
12.158784375
30
0
0
VERTEX
8
0
10
8.038196875
20
12.154803125
30
0
0
VERTEX
8
0
10
7.3299
20
11.44650625
30
0
0
VERTEX
8
0
10
7.312875
20
11.456334375
30
0
42
0.9999999999999999
0
VERTEX
8
0
10
6.911125
20
10.641665625
30
0
0
VERTEX
8
0
10
6.966012500000001
20
10.618931250000001
30
0
42
0.6681776967927662
0
VERTEX
8
0
10
7.519334375000001
20
11.249875000000001
30
0
0
VERTEX
8
0
10
7.50950625
20
11.2669
30
0
0
VERTEX
8
0
10
8.18060625
20
11.938
30
0
0
VERTEX
8
0
10
9.345393750000001
20
11.938
30
0
0
VERTEX
8
0
10
9.525
20
11.75839375
30
0
0
VERTEX
8
0
10
9.525
20
3.6086062500000002
30
0
0
VERTEX
8
0
10
8.800196875000001
20
2.883803125
30
0
0
VERTEX
8
0
10
8.796800000000001
20
2.879553125
30
0
0
VERTEX
8
0
10
8.792875
20
2.8758250000000003
30
0
42
0.11143036570132879
0
VERTEX
8
0
10
8.767146875
20
2.826184375
30
0
0
VERTEX
8
0
10
8.766225
20
2.81901875
30
0
0
VERTEX
8
0
10
8.76390625
20
2.809146875
30
0
0
VERTEX
8
0
10
8.76383125
20
2.8004562500000003
30
0
0
VERTEX
8
0
10
8.763
20
2.794
30
0
0
VERTEX
8
0
10
8.763
20
2.54
30
0
0
VERTEX
8
0
10
8.766115625000001
20
2.51204375
30
0
42
0.34580278566985845
0
VERTEX
8
0
10
8.887825000000001
20
2.41301875
30
0
0
SEQEND
0
CIRCLE
8
drills_PTH
10
5.08
20
12.700000000000001
30
0
40
1.25
0
CIRCLE
8
drills_PTH
10
8.89
20
2.54
30
0
40
0.5
0
CIRCLE
8
drills_PTH
10
6.3500000000000005
20
2.54
30
0
40
0.5
0
CIRCLE
8
drills_PTH
10
3.81
20
2.54
30
0
40
0.5
0
CIRCLE
8
drills_PTH
10
1.27
20
2.54
30
0
40
0.5
0
CIRCLE
8
drills_via_1_16
10
1.143
20
9.398
30
0
40
0.25
0
CIRCLE
8
drills_via_1_16
10
8.636000000000001
20
11.049000000000001
30
0
40
0.25
0
CIRCLE
8
drills_via_1_16
10
7.112
20
11.049000000000001
30
0
40
0.25
0
ENDSEC
0
EOF